<svg preserveAspectRatio="none" width="100%" height="100%" overflow="visible" style="display: block;" viewBox="0 0 253.994 255.222" fill="none" xmlns="http://www.w3.org/2000/svg">
<g id="Vector 576">
<path d="M13.4989 0.857818L245.84 63.1135C250.355 64.3232 253.494 68.4142 253.494 73.088V96.3823V112.111V159.057V244.389C253.494 251.26 246.909 256.215 240.307 254.311L7.96519 187.313C3.54419 186.039 0.5 181.993 0.5 177.391V91.2678V44.3213V28.5927V10.8322C0.5 4.04243 6.94047 -0.899516 13.4989 0.857818Z" fill="var(--fill-0, #EFF6FF)"/>
<path d="M0.5 28.5927L0.5 10.8322C0.5 4.04243 6.94047 -0.899516 13.4989 0.857818L245.84 63.1135C250.355 64.3232 253.494 68.4142 253.494 73.088V96.3823M0.5 28.5927L0.5 44.3213V91.2678V177.391C0.5 181.993 3.54419 186.039 7.96519 187.313L240.307 254.311C246.909 256.215 253.494 251.26 253.494 244.389V159.057V112.111V96.3823M0.5 28.5927L32.1242 37.0664L47.9364 41.3033M253.494 96.3823L237.682 92.1454M237.682 92.1454L221.87 87.9086L190.245 79.4349L126.997 62.4875L63.7485 45.5401L47.9364 41.3033M237.682 92.1454L47.9364 41.3033M237.682 92.1454V84.0305C237.682 79.3595 234.546 75.2701 230.035 74.058L57.6909 27.7478C52.7708 26.4257 47.9364 30.1325 47.9364 35.2272V41.3033" stroke="var(--stroke-0, #3B82F6)"/>
</g>
</svg>
