<svg preserveAspectRatio="none" width="100%" height="100%" overflow="visible" style="display: block;" viewBox="0 0 190.745 65.8192" fill="none" xmlns="http://www.w3.org/2000/svg">
<g id="Vector 578">
<path d="M16.3121 18.5622L79.5606 35.5096L142.809 52.457L174.433 60.9307L190.245 65.1676V57.0526C190.245 52.3816 187.11 48.2922 182.599 47.0801L10.2545 0.769872C5.33438 -0.552196 0.5 3.15464 0.5 8.24927V14.3254L16.3121 18.5622Z" fill="var(--fill-0, #EFF6FF)"/>
<path d="M190.245 65.1676L174.433 60.9307L142.809 52.457L79.5606 35.5096L16.3121 18.5622L0.5 14.3254M190.245 65.1676L0.5 14.3254M190.245 65.1676V57.0526C190.245 52.3816 187.11 48.2922 182.599 47.0801L10.2545 0.769872C5.33438 -0.552196 0.5 3.15464 0.5 8.24927V14.3254" stroke="var(--stroke-0, #3B82F6)"/>
</g>
</svg>
