<svg preserveAspectRatio="none" width="100%" height="100%" overflow="visible" style="display: block;" viewBox="0 0 253.994 97.0339" fill="none" xmlns="http://www.w3.org/2000/svg">
<g id="Vector 579">
<path d="M13.4989 0.857818L245.84 63.1135C250.355 64.3232 253.494 68.4142 253.494 73.088V96.3823L237.682 92.1454L221.87 87.9086L190.245 79.4349L126.997 62.4875L63.7485 45.5401L47.9364 41.3033L32.1242 37.0664L0.5 28.5927V10.8322C0.5 4.04243 6.94047 -0.899516 13.4989 0.857818Z" fill="var(--fill-0, #DBEAFE)"/>
<path d="M237.682 92.1454L253.494 96.3823V73.088C253.494 68.4142 250.355 64.3232 245.84 63.1135L13.4989 0.857818C6.94047 -0.899516 0.5 4.04243 0.5 10.8322L0.5 28.5927L32.1242 37.0664L47.9364 41.3033M237.682 92.1454L221.87 87.9086L190.245 79.4349L126.997 62.4875L63.7485 45.5401L47.9364 41.3033M237.682 92.1454L47.9364 41.3033M237.682 92.1454V84.0305C237.682 79.3595 234.546 75.2701 230.035 74.058L57.6909 27.7478C52.7708 26.4257 47.9364 30.1325 47.9364 35.2272V41.3033" stroke="var(--stroke-0, #3B82F6)"/>
</g>
</svg>
