<svg preserveAspectRatio="none" width="100%" height="100%" overflow="visible" style="display: block;" viewBox="0 0 190.745 155.101" fill="none" xmlns="http://www.w3.org/2000/svg">
<g id="Vector 580">
<path d="M4.20153 101.429L183.62 154.386C186.928 155.362 190.245 152.883 190.245 149.434V79.5394L190.245 81.1171V65.4484V53.7414C190.245 51.4046 188.676 49.359 186.419 48.7542L174.433 45.5428L158.621 41.3059L95.3727 24.3585L32.1243 7.41114L16.3122 3.17429L6.99986 0.679046C3.72063 -0.199619 0.500393 2.27135 0.500393 5.66626V18.5384V38.1393V61.6126L0.5 96.4766C0.499974 98.7652 2.00654 100.781 4.20153 101.429Z" fill="var(--fill-0, #DBEAFE)"/>
<path d="M174.433 45.5428L186.419 48.7542C188.676 49.359 190.245 51.4046 190.245 53.7414V65.4484V81.1171L190.245 79.5394V149.434C190.245 152.883 186.928 155.362 183.62 154.386L4.20153 101.429C2.00654 100.781 0.499974 98.7652 0.5 96.4766L0.500393 61.6126V38.1393V18.5384V5.66626C0.500393 2.27135 3.72063 -0.199619 6.99986 0.679046L16.3122 3.17429M174.433 45.5428L158.621 41.3059L95.3727 24.3585L32.1243 7.41114L16.3122 3.17429M174.433 45.5428L16.3122 3.17429" stroke="var(--stroke-0, #3B82F6)"/>
</g>
</svg>
