<svg preserveAspectRatio="none" width="100%" height="100%" overflow="visible" style="display: block;" viewBox="0 0 500 313.462" fill="none" xmlns="http://www.w3.org/2000/svg">
<g id="bottom">
<g id="bot">
<path d="M18.001 170.693C9.74772 165.614 9.74772 153.617 18.001 148.539L236.367 14.1596C244.728 9.01442 255.273 9.01441 263.634 14.1596L482 148.539C490.253 153.617 490.253 165.614 482 170.693L263.634 305.072C255.273 310.217 244.728 310.217 236.367 305.072L18.001 170.693Z" fill="var(--fill-0, #93C5FD)"/>
<path d="M18.001 170.693C9.74772 165.614 9.74772 153.617 18.001 148.539L236.367 14.1596C244.728 9.01442 255.273 9.01441 263.634 14.1596L482 148.539C490.253 153.617 490.253 165.614 482 170.693L263.634 305.072C255.273 310.217 244.728 310.217 236.367 305.072L18.001 170.693Z" fill="var(--fill-1, #E4E4E7)"/>
<path d="M18.001 170.693C9.74772 165.614 9.74772 153.617 18.001 148.539L236.367 14.1596C244.728 9.01442 255.273 9.01441 263.634 14.1596L482 148.539C490.253 153.617 490.253 165.614 482 170.693L263.634 305.072C255.273 310.217 244.728 310.217 236.367 305.072L18.001 170.693Z" stroke="var(--stroke-0, #3B82F6)"/>
<path d="M18.001 170.693C9.74772 165.614 9.74772 153.617 18.001 148.539L236.367 14.1596C244.728 9.01442 255.273 9.01441 263.634 14.1596L482 148.539C490.253 153.617 490.253 165.614 482 170.693L263.634 305.072C255.273 310.217 244.728 310.217 236.367 305.072L18.001 170.693Z" stroke="var(--stroke-1, #A1A1AA)"/>
</g>
<g id="top">
<path d="M18.001 164.924C9.74772 159.845 9.74772 147.848 18.001 142.769L236.367 8.39015C244.728 3.24499 255.273 3.24498 263.634 8.39014L482 142.769C490.253 147.848 490.253 159.845 482 164.924L263.634 299.303C255.273 304.448 244.728 304.448 236.367 299.303L18.001 164.924Z" fill="var(--fill-0, #EFF6FF)"/>
<path d="M18.001 164.924C9.74772 159.845 9.74772 147.848 18.001 142.769L236.367 8.39015C244.728 3.24499 255.273 3.24498 263.634 8.39014L482 142.769C490.253 147.848 490.253 159.845 482 164.924L263.634 299.303C255.273 304.448 244.728 304.448 236.367 299.303L18.001 164.924Z" fill="var(--fill-1, white)"/>
<path d="M18.001 164.924C9.74772 159.845 9.74772 147.848 18.001 142.769L236.367 8.39015C244.728 3.24499 255.273 3.24498 263.634 8.39014L482 142.769C490.253 147.848 490.253 159.845 482 164.924L263.634 299.303C255.273 304.448 244.728 304.448 236.367 299.303L18.001 164.924Z" stroke="var(--stroke-0, #3B82F6)"/>
<path d="M18.001 164.924C9.74772 159.845 9.74772 147.848 18.001 142.769L236.367 8.39015C244.728 3.24499 255.273 3.24498 263.634 8.39014L482 142.769C490.253 147.848 490.253 159.845 482 164.924L263.634 299.303C255.273 304.448 244.728 304.448 236.367 299.303L18.001 164.924Z" stroke="var(--stroke-1, #A1A1AA)"/>
</g>
</g>
</svg>
