<svg preserveAspectRatio="none" width="100%" height="100%" overflow="visible" style="display: block;" viewBox="0 0 3.80483 96.5" fill="none" xmlns="http://www.w3.org/2000/svg">
<path id="Vector" d="M2.01543 0.0729895C1.91767 -0.0245123 1.75937 -0.0243028 1.66187 0.0734574L0.0729896 1.66655C-0.0245122 1.76431 -0.0243027 1.9226 0.0734575 2.02011C0.171218 2.11761 0.329509 2.1174 0.427011 2.01964L1.83935 0.603553L3.25544 2.01589C3.3532 2.1134 3.51149 2.11319 3.60899 2.01543C3.70649 1.91767 3.70628 1.75937 3.60852 1.66187L2.01543 0.0729895ZM1.78941 96.427C1.88717 96.5245 2.04546 96.5243 2.14296 96.4265L3.73185 94.8335C3.82935 94.7357 3.82914 94.5774 3.73138 94.4799C3.63362 94.3824 3.47533 94.3826 3.37782 94.4804L1.96548 95.8964L0.549399 94.4841C0.451639 94.3866 0.293348 94.3868 0.195846 94.4846C0.0983446 94.5823 0.098554 94.7406 0.196314 94.8381L1.78941 96.427ZM1.83888 0.25L1.58888 0.250331L1.71595 96.2503L1.96595 96.25L2.21595 96.2497L2.08888 0.249669L1.83888 0.25Z" fill="#BFBFBF"/>
</svg>
