<svg preserveAspectRatio="none" width="100%" height="100%" overflow="visible" style="display: block;" viewBox="0 0 500 500" fill="none" xmlns="http://www.w3.org/2000/svg">
<g id="top">
<path id="Vector" d="M143.204 263.524L57.228 314.309C49.1424 319.085 48.443 330.519 55.8864 336.245L196.002 444.029C200.392 447.406 206.419 447.7 211.117 444.766L305.8 385.635C309.247 383.482 310.431 379.392 309.264 375.93L354.634 386.744C360.107 388.048 365.808 385.758 368.858 381.029L424.333 295L326 233C323.865 234.018 318.741 238.959 317.379 241.029L255.485 335.07L157.737 264.206C153.46 261.106 147.752 260.838 143.204 263.524Z" fill="#DBEAFE"/>
<path id="Rectangle 3463855" d="M295.843 211.286C289.205 209.478 281.093 212.921 277.782 218.952L218.761 326.468C215.49 332.427 218.14 338.672 224.699 340.459L348.125 374.085C354.763 375.893 362.875 372.451 366.186 366.419L425.207 258.903C428.478 252.944 425.828 246.699 419.269 244.913L295.843 211.286Z" fill="#93C5FD" stroke="#3B82F6"/>
<rect id="Rectangle 3463856" x="-0.725368" y="0.3079" width="150.534" height="150.534" rx="12.3965" transform="matrix(-0.965926 -0.258819 -0.48481 0.87462 429.622 234.23)" fill="#DBEAFE" stroke="#3B82F6"/>
<g id="Vector_2">
<path d="M324.689 322.996C327.497 323.748 330.412 323.818 333.434 323.205C336.469 322.57 339.268 321.382 341.832 319.64C344.373 317.892 346.348 315.746 347.757 313.204C349.178 310.641 349.791 308.118 349.594 305.636C349.375 303.149 348.446 300.961 346.809 299.075C345.172 297.189 342.95 295.87 340.142 295.117L331.932 292.917L339.073 280.036L347.283 282.236C350.091 282.988 353.006 283.057 356.028 282.444C359.062 281.81 361.856 280.632 364.408 278.912C366.949 277.163 368.93 275.007 370.351 272.444C371.772 269.88 372.378 267.368 372.17 264.908C371.951 262.42 371.017 260.244 369.368 258.379C367.731 256.493 365.508 255.174 362.701 254.421C359.87 253.663 356.937 253.601 353.902 254.235C350.88 254.848 348.087 256.026 345.522 257.768C342.97 259.488 340.983 261.63 339.562 264.194L335.477 271.564L321.25 267.752L325.335 260.382C326.756 257.818 327.363 255.307 327.155 252.846C326.935 250.359 326.013 248.185 324.388 246.327C322.751 244.44 320.516 243.118 317.685 242.359C314.854 241.601 311.933 241.542 308.922 242.183C305.9 242.796 303.118 243.977 300.578 245.725C298.025 247.446 296.038 249.588 294.617 252.151C293.196 254.715 292.596 257.24 292.815 259.728C293.023 262.189 293.946 264.362 295.583 266.248C297.208 268.107 299.436 269.415 302.268 270.174L310.407 272.355L303.267 285.237L295.127 283.056C292.296 282.297 289.375 282.238 286.364 282.879C283.33 283.514 280.542 284.705 278.002 286.453C275.437 288.195 273.445 290.348 272.024 292.911C270.614 295.454 270.02 297.969 270.239 300.456C270.435 302.938 271.352 305.122 272.989 307.008C274.614 308.867 276.843 310.175 279.674 310.934C282.505 311.693 285.432 311.765 288.454 311.152C291.465 310.511 294.253 309.32 296.817 307.578C299.358 305.83 301.333 303.684 302.742 301.142L306.863 293.708L321.089 297.52L316.968 304.954C315.559 307.496 314.964 310.011 315.184 312.499C315.404 314.987 316.332 317.174 317.969 319.061C319.618 320.926 321.858 322.237 324.689 322.996ZM328.313 316.459C326.803 316.054 325.618 315.356 324.758 314.365C323.875 313.368 323.375 312.216 323.26 310.909C323.132 309.575 323.442 308.235 324.188 306.889L328.309 299.454L336.519 301.654C338.005 302.053 339.184 302.761 340.056 303.78C340.915 304.771 341.397 305.93 341.501 307.259C341.617 308.565 341.296 309.902 340.538 311.27C339.792 312.616 338.739 313.757 337.38 314.693C336.033 315.608 334.562 316.232 332.969 316.565C331.351 316.893 329.799 316.857 328.313 316.459ZM350.907 275.699L342.696 273.499L346.781 266.128C347.539 264.761 348.604 263.623 349.974 262.715C351.322 261.8 352.804 261.179 354.421 260.852C356.015 260.518 357.567 260.554 359.077 260.958C360.564 261.357 361.748 262.054 362.632 263.052C363.491 264.043 363.979 265.192 364.095 266.498C364.21 267.805 363.889 269.142 363.131 270.509C362.374 271.877 361.315 273.028 359.956 273.965C358.609 274.88 357.138 275.504 355.545 275.837C353.939 276.143 352.393 276.097 350.907 275.699ZM314.031 265.818L305.891 263.637C304.381 263.232 303.19 262.545 302.319 261.575C301.459 260.584 300.971 259.436 300.856 258.129C300.752 256.801 301.079 255.453 301.837 254.086C302.595 252.718 303.647 251.577 304.994 250.662C306.342 249.748 307.812 249.123 309.406 248.79C311 248.456 312.552 248.492 314.062 248.896C315.572 249.301 316.768 250.002 317.652 250.999C318.511 251.99 318.999 253.139 319.115 254.446C319.207 255.746 318.874 257.08 318.116 258.448L314.031 265.818ZM283.297 304.397C281.787 303.992 280.603 303.295 279.743 302.304C278.883 301.313 278.395 300.164 278.28 298.857C278.176 297.529 278.497 296.192 279.243 294.846C280.001 293.479 281.053 292.338 282.401 291.423C283.76 290.486 285.236 289.852 286.83 289.518C288.436 289.163 289.994 289.188 291.504 289.593L299.643 291.774L295.522 299.208C294.776 300.554 293.736 301.698 292.4 302.64C291.053 303.555 289.582 304.18 287.989 304.513C286.371 304.84 284.807 304.802 283.297 304.397ZM324.713 290.983L310.486 287.171L317.627 274.289L331.853 278.101L324.713 290.983Z" fill="#93C5FD"/>
<path d="M323.621 318.656C326.428 319.408 329.343 319.478 332.366 318.865C335.4 318.23 338.2 317.042 340.764 315.3C343.305 313.552 345.28 311.406 346.689 308.864C348.11 306.301 348.722 303.778 348.526 301.296C348.306 298.809 347.378 296.621 345.741 294.735C344.104 292.849 341.882 291.53 339.074 290.777L330.864 288.577L338.004 275.696L346.215 277.896C349.022 278.648 351.937 278.717 354.96 278.104C357.994 277.47 360.788 276.292 363.34 274.572C365.881 272.823 367.862 270.667 369.283 268.104C370.704 265.54 371.31 263.028 371.102 260.568C370.882 258.08 369.948 255.904 368.299 254.039C366.662 252.153 364.44 250.834 361.632 250.081C358.801 249.323 355.868 249.261 352.834 249.895C349.812 250.508 347.018 251.686 344.454 253.428C341.901 255.148 339.915 257.291 338.494 259.854L334.408 267.224L320.182 263.412L324.267 256.042C325.688 253.479 326.295 250.967 326.087 248.506C325.867 246.019 324.945 243.845 323.319 241.987C321.682 240.1 319.448 238.778 316.617 238.019C313.786 237.261 310.865 237.202 307.854 237.843C304.832 238.456 302.05 239.637 299.509 241.385C296.957 243.106 294.97 245.248 293.549 247.811C292.128 250.375 291.527 252.9 291.747 255.388C291.955 257.849 292.877 260.022 294.515 261.908C296.14 263.767 298.368 265.075 301.199 265.834L309.339 268.015L302.198 280.897L294.059 278.716C291.228 277.957 288.307 277.898 285.296 278.539C282.261 279.174 279.474 280.365 276.933 282.113C274.369 283.855 272.376 286.008 270.955 288.571C269.546 291.114 268.951 293.629 269.171 296.117C269.367 298.598 270.284 300.782 271.921 302.668C273.546 304.527 275.774 305.835 278.605 306.594C281.437 307.353 284.363 307.425 287.386 306.812C290.397 306.171 293.184 304.98 295.749 303.238C298.289 301.49 300.264 299.344 301.673 296.802L305.794 289.368L320.021 293.18L315.9 300.614C314.491 303.156 313.896 305.672 314.116 308.159C314.335 310.647 315.264 312.834 316.901 314.721C318.55 316.586 320.79 317.897 323.621 318.656ZM327.244 312.119C325.734 311.714 324.55 311.016 323.69 310.026C322.806 309.028 322.307 307.876 322.191 306.569C322.064 305.235 322.373 303.895 323.119 302.549L327.24 295.114L335.451 297.314C336.937 297.713 338.116 298.421 338.987 299.44C339.847 300.431 340.329 301.59 340.433 302.919C340.548 304.225 340.227 305.562 339.469 306.93C338.723 308.276 337.671 309.417 336.312 310.353C334.965 311.268 333.494 311.892 331.9 312.225C330.283 312.553 328.731 312.517 327.244 312.119ZM349.838 271.359L341.628 269.159L345.713 261.789C346.471 260.421 347.535 259.283 348.906 258.375C350.253 257.46 351.736 256.839 353.353 256.512C354.947 256.178 356.499 256.214 358.009 256.618C359.495 257.017 360.68 257.714 361.563 258.712C362.423 259.703 362.911 260.852 363.026 262.158C363.142 263.465 362.821 264.802 362.063 266.169C361.305 267.537 360.247 268.688 358.888 269.625C357.541 270.54 356.07 271.164 354.476 271.497C352.871 271.803 351.324 271.757 349.838 271.359ZM312.962 261.478L304.823 259.297C303.313 258.892 302.122 258.205 301.25 257.235C300.391 256.245 299.903 255.096 299.787 253.789C299.684 252.461 300.011 251.113 300.768 249.746C301.526 248.378 302.579 247.237 303.926 246.322C305.273 245.408 306.744 244.783 308.338 244.45C309.932 244.116 311.483 244.152 312.993 244.556C314.503 244.961 315.7 245.662 316.583 246.659C317.443 247.65 317.931 248.799 318.046 250.106C318.138 251.407 317.806 252.74 317.048 254.108L312.962 261.478ZM282.229 300.057C280.719 299.652 279.534 298.955 278.674 297.964C277.815 296.973 277.327 295.824 277.211 294.517C277.108 293.189 277.429 291.852 278.175 290.506C278.933 289.139 279.985 287.998 281.332 287.083C282.691 286.146 284.168 285.512 285.762 285.178C287.367 284.823 288.925 284.848 290.435 285.253L298.575 287.434L294.454 294.868C293.708 296.214 292.667 297.358 291.332 298.3C289.985 299.215 288.514 299.84 286.92 300.173C285.303 300.5 283.739 300.462 282.229 300.057ZM323.644 286.643L309.418 282.831L316.558 269.949L330.785 273.761L323.644 286.643Z" fill="#EFF6FF"/>
</g>
<g id="Vector 545">
<path d="M172.898 201.826L81.8099 235.173C78.1832 236.501 74.158 236.182 70.7855 234.3L67.3871 232.404V249.815C67.4001 252.383 68.161 254.99 69.7743 257.306L85.9312 280.492L181.599 417.781C185.122 422.837 191.663 424.801 197.389 422.522L306.129 377.744C309.445 376.423 311.353 373.277 311.357 370.034V358.012L303.273 356.685L188.127 206.399C184.628 201.664 178.427 199.802 172.898 201.826Z" fill="#93C5FD"/>
<path d="M85.9312 280.492L181.599 417.781C185.122 422.837 191.663 424.801 197.389 422.522L306.129 377.744C309.445 376.423 311.353 373.277 311.357 370.034V358.012L303.273 356.685L188.127 206.399C184.628 201.664 178.427 199.802 172.898 201.826L81.8099 235.173C78.1832 236.501 74.158 236.182 70.7855 234.3L67.3871 232.404V249.815C67.4001 252.383 68.161 254.99 69.7743 257.306L85.9312 280.492ZM85.9312 280.492V263.081" stroke="#3B82F6"/>
</g>
<path id="Vector 544" d="M172.921 184.406L76.1442 219.837C67.9607 222.833 64.8399 232.771 69.8417 239.908L184.081 402.898C187.61 407.933 194.137 409.883 199.849 407.609L306.106 365.317C311.165 363.303 312.942 357.042 309.696 352.671L188.132 188.955C184.629 184.237 178.44 182.386 172.921 184.406Z" fill="#DBEAFE" stroke="#3B82F6"/>
<g id="Vector 546">
<path d="M294.366 344.482L185.926 199.052C184.175 196.704 181.09 195.782 178.337 196.786L158.678 203.953C157.446 204.402 156.884 205.828 157.479 206.997C158.073 208.164 157.514 209.587 156.286 210.039L109.339 227.315C107.791 227.885 106.053 227.454 104.95 226.228C103.85 225.005 102.117 224.573 100.572 225.136L84.6511 230.941C80.5487 232.436 78.9857 237.419 81.4989 240.99L186.823 390.633C188.588 393.14 191.841 394.111 194.691 392.981L291.492 354.613C295.551 353.004 296.975 347.982 294.366 344.482Z" fill="#EFF6FF"/>
<path d="M129.744 214.501L116.437 219.353L143.052 209.649L129.744 214.501ZM156.286 210.039L109.339 227.315C107.791 227.885 106.053 227.454 104.95 226.228C103.85 225.005 102.117 224.573 100.572 225.136L84.6511 230.941C80.5487 232.436 78.9857 237.419 81.4989 240.99L186.823 390.633C188.588 393.14 191.841 394.111 194.691 392.981L291.492 354.613C295.551 353.004 296.975 347.982 294.366 344.482L185.926 199.052C184.175 196.704 181.09 195.782 178.337 196.786L158.678 203.953C157.446 204.402 156.884 205.828 157.479 206.997C158.073 208.164 157.514 209.587 156.286 210.039Z" stroke="#3B82F6" stroke-linejoin="round"/>
</g>
<path id="Vector_3" fill-rule="evenodd" clip-rule="evenodd" d="M135.027 274.276L177.022 258.924C182.14 256.984 183.713 256.85 188.572 257.976L208.474 262.354C211.799 263.134 212.845 263.306 213.948 264.881L246.199 310.94C248.22 313.827 248.182 315.888 244.05 317.386L194.878 334.638C191.732 335.698 189.915 335.747 186.932 334.395L168.613 325.94C165.291 324.369 163.421 323.017 162.133 321.178L133.466 280.237C131.813 277.876 131.668 275.553 135.027 274.276Z" fill="#EFF6FF"/>
<path id="Vector_4" fill-rule="evenodd" clip-rule="evenodd" d="M149.601 280.812C153.258 281.811 154.091 281.416 158.533 279.826L200.582 265.089C201.507 264.824 200.187 264.258 199.787 264.216L189.42 261.831C187.389 261.311 184.804 260.789 181.445 262.069L141.054 276.802C139.605 277.374 139.756 278.118 140.738 278.469L149.601 280.812ZM158.284 288.722L185.664 327.825C187.135 329.926 188.918 330.359 191.601 329.434L237.875 313.327C240.559 312.401 239.856 310.867 238.661 309.16L211.464 270.32C210.271 268.615 208.858 267.917 207.251 268.535L158.91 285.389C157.154 286.052 157.089 287.016 158.284 288.722ZM207.068 277.252C208.203 278.346 208.722 279.615 207.425 280.147L205.391 281.201L225.605 310.069C224.243 311.563 222.761 312.618 221.221 313.06C218.754 313.767 217.676 313.287 214.451 311.85L185.196 295.974L198.886 315.525L204.31 315.074C204.31 315.074 205.963 317.435 202.106 318.541L191.843 322.115C191.166 321.678 190.557 320.278 191.451 319.706L193.767 318.255L175.666 292.404L171.63 293.246C170.493 292.152 170.069 290.227 172.135 289.475L183.082 285.55L213.136 301.513L200.456 283.404L196.173 284.161C194.853 282.804 195.35 281.402 196.8 280.83L207.068 277.252ZM135.027 274.276L177.022 258.924C182.14 256.984 183.713 256.85 188.572 257.976L208.474 262.354C211.799 263.134 212.845 263.306 213.948 264.881L246.199 310.94C248.22 313.827 248.182 315.888 244.05 317.386L194.878 334.638C191.732 335.698 189.915 335.747 186.932 334.395L168.613 325.94C165.291 324.369 163.421 323.017 162.133 321.178L133.466 280.237C131.813 277.876 131.668 275.553 135.027 274.276Z" fill="#93C5FD"/>
</g>
</svg>
