<svg preserveAspectRatio="none" width="100%" height="100%" overflow="visible" style="display: block;" viewBox="0 0 500 500" fill="none" xmlns="http://www.w3.org/2000/svg">
<g id="top">
<ellipse id="Ellipse 224" cx="278.525" cy="362.179" rx="98.0997" ry="52.2768" fill="#DBEAFE"/>
<ellipse id="Ellipse 225" cx="170.1" cy="346.689" rx="98.0997" ry="52.2768" fill="#DBEAFE"/>
<g id="Vector">
<path d="M259.95 59.876L232.056 52.5488V300.597L259.95 309.257V59.876Z" fill="#93C5FD"/>
<path d="M179.133 95.4038L207.028 102.731L207.028 322.162L179.134 313.502V313.391L179.133 95.4038Z" fill="#93C5FD"/>
<path d="M126.211 138.386L154.105 145.713V335.071L126.211 326.411V326.3V138.386Z" fill="#93C5FD"/>
<path d="M73.2891 184.468L101.183 191.795V347.979L73.2891 339.32V339.209V184.468Z" fill="#93C5FD"/>
</g>
<g id="Vector_2">
<path d="M259.95 59.876V309.257L296.595 300.486V52.5488L259.95 59.876Z" fill="#DBEAFE"/>
<path d="M207.028 102.731L207.028 322.162L243.673 313.391L243.673 95.4038L207.028 102.731Z" fill="#DBEAFE"/>
<path d="M154.106 145.713V335.071L190.751 326.3V138.386L154.106 145.713Z" fill="#DBEAFE"/>
<path d="M101.184 191.795V347.979L137.829 339.209V184.468L101.184 191.795Z" fill="#DBEAFE"/>
</g>
<g id="Vector_3">
<path d="M268.701 44L296.595 52.5484L259.95 59.8756L232.056 52.5484L268.701 44Z" fill="#EFF6FF"/>
<path d="M215.779 86.855L243.673 95.4034L207.028 102.731L179.133 95.4034L215.779 86.855Z" fill="#EFF6FF"/>
<path d="M162.856 129.837L190.751 138.386L154.105 145.713L126.211 138.386L162.856 129.837Z" fill="#EFF6FF"/>
<path d="M109.934 175.919L137.828 184.468L101.183 191.795L73.2891 184.468L109.934 175.919Z" fill="#EFF6FF"/>
</g>
<g id="Union">
<mask id="path-6-outside-1_0_21" maskUnits="userSpaceOnUse" x="72.291" y="43" width="226" height="306" fill="black">
<rect fill="white" x="72.291" y="43" width="226" height="306"/>
<path d="M296.597 52.5488H296.598V300.486L259.952 309.256L243.675 304.203L243.676 313.391L207.03 322.161V102.73H207.029L207.03 322.161L190.753 317.107V326.3L154.107 335.07L137.831 330.018V339.208L101.186 347.979L73.291 339.319V184.468L109.937 175.919L126.213 180.907V138.386L162.858 129.837L179.136 134.825V95.4033L215.78 86.8545L232.058 91.8428V52.5488L268.703 44L296.597 52.5488Z"/>
</mask>
<path d="M296.597 52.5488L296.304 53.5049C296.399 53.534 296.497 53.5488 296.597 53.5488V52.5488ZM296.598 52.5488H297.598C297.598 51.9965 297.15 51.5488 296.598 51.5488V52.5488ZM296.598 300.486L296.83 301.459C297.28 301.351 297.598 300.949 297.598 300.486H296.598ZM259.952 309.256L259.656 310.211C259.827 310.264 260.01 310.27 260.185 310.228L259.952 309.256ZM243.675 304.203L243.971 303.248C243.668 303.154 243.338 303.21 243.082 303.398C242.826 303.587 242.675 303.885 242.675 304.203L243.675 304.203ZM243.676 313.391L243.909 314.363C244.358 314.255 244.676 313.853 244.676 313.391L243.676 313.391ZM207.03 322.161L206.734 323.116C206.905 323.169 207.088 323.176 207.263 323.134L207.03 322.161ZM207.03 102.73H208.03C208.03 102.178 207.583 101.73 207.03 101.73V102.73ZM207.029 102.73V101.73C206.764 101.73 206.51 101.836 206.322 102.023C206.135 102.211 206.029 102.465 206.029 102.73L207.029 102.73ZM190.753 317.107L191.049 316.152C190.746 316.058 190.416 316.114 190.16 316.302C189.904 316.491 189.753 316.79 189.753 317.107H190.753ZM190.753 326.3L190.986 327.272C191.436 327.165 191.753 326.762 191.753 326.3H190.753ZM154.107 335.07L153.811 336.025C153.983 336.079 154.165 336.085 154.34 336.043L154.107 335.07ZM137.831 330.018L138.128 329.063C137.824 328.968 137.494 329.024 137.238 329.212C136.982 329.401 136.831 329.7 136.831 330.018H137.831ZM137.831 339.208L138.064 340.181C138.514 340.073 138.831 339.671 138.831 339.208H137.831ZM101.186 347.979L100.889 348.934C101.061 348.987 101.244 348.993 101.418 348.951L101.186 347.979ZM73.291 339.319H72.291C72.291 339.757 72.5762 340.145 72.9945 340.274L73.291 339.319ZM73.291 184.468L73.0638 183.494C72.6112 183.6 72.291 184.003 72.291 184.468H73.291ZM109.937 175.919L110.23 174.963C110.061 174.911 109.881 174.905 109.709 174.945L109.937 175.919ZM126.213 180.907L125.92 181.863C126.223 181.956 126.552 181.9 126.807 181.711C127.062 181.523 127.213 181.224 127.213 180.907H126.213ZM126.213 138.386L125.986 137.412C125.533 137.517 125.213 137.921 125.213 138.386H126.213ZM162.858 129.837L163.151 128.881C162.983 128.829 162.803 128.823 162.631 128.863L162.858 129.837ZM179.136 134.825L178.843 135.781C179.146 135.874 179.475 135.818 179.73 135.629C179.985 135.441 180.136 135.142 180.136 134.825H179.136ZM179.136 95.4033L178.909 94.4295C178.456 94.5351 178.136 94.9386 178.136 95.4033H179.136ZM215.78 86.8545L216.073 85.8984C215.904 85.8467 215.725 85.8405 215.553 85.8806L215.78 86.8545ZM232.058 91.8428L231.765 92.7989C232.068 92.8918 232.397 92.8354 232.652 92.6468C232.907 92.4583 233.058 92.1599 233.058 91.8428H232.058ZM232.058 52.5488L231.83 51.575C231.378 51.6806 231.058 52.0841 231.058 52.5488H232.058ZM268.703 44L268.996 43.0439C268.827 42.9922 268.648 42.986 268.476 43.0261L268.703 44ZM296.597 52.5488V53.5488H296.598V52.5488V51.5488H296.597V52.5488ZM296.598 52.5488H295.598V300.486H296.598H297.598V52.5488H296.598ZM296.598 300.486L296.365 299.514L259.719 308.283L259.952 309.256L260.185 310.228L296.83 301.459L296.598 300.486ZM259.952 309.256L260.249 308.301L243.971 303.248L243.675 304.203L243.378 305.158L259.656 310.211L259.952 309.256ZM243.675 304.203L242.675 304.203L242.676 313.391L243.676 313.391L244.676 313.391L244.675 304.203L243.675 304.203ZM243.676 313.391L243.443 312.418L206.798 321.189L207.03 322.161L207.263 323.134L243.909 314.363L243.676 313.391ZM207.03 322.161H208.03V102.73H207.03H206.03V322.161H207.03ZM207.03 102.73V101.73H207.029V102.73V103.73H207.03V102.73ZM207.029 102.73L206.029 102.73L206.03 322.161H207.03H208.03L208.029 102.73L207.029 102.73ZM207.03 322.161L207.327 321.206L191.049 316.152L190.753 317.107L190.456 318.062L206.734 323.116L207.03 322.161ZM190.753 317.107H189.753V326.3H190.753H191.753V317.107H190.753ZM190.753 326.3L190.52 325.327L153.875 334.098L154.107 335.07L154.34 336.043L190.986 327.272L190.753 326.3ZM154.107 335.07L154.404 334.115L138.128 329.063L137.831 330.018L137.535 330.973L153.811 336.025L154.107 335.07ZM137.831 330.018H136.831V339.208H137.831H138.831V330.018H137.831ZM137.831 339.208L137.598 338.235L100.953 347.006L101.186 347.979L101.418 348.951L138.064 340.181L137.831 339.208ZM101.186 347.979L101.482 347.023L73.5875 338.364L73.291 339.319L72.9945 340.274L100.889 348.934L101.186 347.979ZM73.291 339.319H74.291V184.468H73.291H72.291V339.319H73.291ZM73.291 184.468L73.5182 185.442L110.164 176.893L109.937 175.919L109.709 174.945L73.0638 183.494L73.291 184.468ZM109.937 175.919L109.644 176.875L125.92 181.863L126.213 180.907L126.506 179.951L110.23 174.963L109.937 175.919ZM126.213 180.907H127.213V138.386H126.213H125.213V180.907H126.213ZM126.213 138.386L126.44 139.36L163.086 130.811L162.858 129.837L162.631 128.863L125.986 137.412L126.213 138.386ZM162.858 129.837L162.565 130.793L178.843 135.781L179.136 134.825L179.429 133.869L163.151 128.881L162.858 129.837ZM179.136 134.825H180.136V95.4033H179.136H178.136V134.825H179.136ZM179.136 95.4033L179.363 96.3772L216.007 87.8283L215.78 86.8545L215.553 85.8806L178.909 94.4295L179.136 95.4033ZM215.78 86.8545L215.487 87.8106L231.765 92.7989L232.058 91.8428L232.351 90.8867L216.073 85.8984L215.78 86.8545ZM232.058 91.8428H233.058V52.5488H232.058H231.058V91.8428H232.058ZM232.058 52.5488L232.285 53.5227L268.93 44.9739L268.703 44L268.476 43.0261L231.83 51.575L232.058 52.5488ZM268.703 44L268.41 44.9561L296.304 53.5049L296.597 52.5488L296.89 51.5927L268.996 43.0439L268.703 44Z" fill="#3B82F6" mask="url(#path-6-outside-1_0_21)"/>
</g>
<ellipse id="Ellipse 216" cx="379.848" cy="243.242" rx="58.7307" ry="91.6458" transform="rotate(-15 379.848 243.242)" fill="#DBEAFE" stroke="#3B82F6" stroke-linejoin="round"/>
<ellipse id="Ellipse 213" cx="383.588" cy="242.241" rx="54.8584" ry="91.6458" transform="rotate(-15 383.588 242.241)" fill="#DBEAFE" stroke="#3B82F6" stroke-linejoin="round"/>
<g id="Vector_4">
<path d="M270.663 222.27C257.452 229.414 251.832 251.736 258.117 275.192C264.402 298.647 280.43 315.169 295.443 314.75C310.456 314.331 370.08 326.481 370.08 326.481C349.8 315.171 331.626 290.195 323.118 258.443C314.61 226.691 317.861 195.973 329.769 176.039C329.769 176.039 283.874 215.126 270.663 222.27Z" fill="#EFF6FF"/>
<path d="M403.567 331.765C392.584 334.708 381.025 332.585 370.08 326.481M356.128 154.719C345.145 157.662 336.196 165.28 329.769 176.039M370.08 326.481C349.8 315.171 331.626 290.195 323.118 258.443C314.61 226.691 317.861 195.973 329.769 176.039M370.08 326.481C370.08 326.481 310.456 314.331 295.443 314.75C280.43 315.169 264.402 298.647 258.117 275.192C251.832 251.736 257.452 229.414 270.663 222.27C283.874 215.126 329.769 176.039 329.769 176.039" stroke="#3B82F6" stroke-linejoin="round"/>
</g>
<path id="Vector_5" d="M270.664 222.27C257.453 229.414 251.833 251.736 258.118 275.192C264.403 298.647 280.431 315.169 295.444 314.75L271.693 325.854C271.693 325.854 220.599 332.162 210.67 322.233C194.206 305.77 189.213 287.135 195.239 264.645C198.873 251.081 245.274 227.257 245.274 227.257L270.664 222.27Z" fill="#93C5FD" stroke="#3B82F6" stroke-linejoin="round"/>
<ellipse id="Ellipse 214" cx="383.588" cy="242.24" rx="39.369" ry="72.284" transform="rotate(-15 383.588 242.24)" fill="#EFF6FF"/>
<ellipse id="Ellipse 217" cx="380.471" cy="243.075" rx="36.142" ry="72.284" transform="rotate(-15 380.471 243.075)" fill="#93C5FD" stroke="#3B82F6" stroke-linejoin="round"/>
<path id="Vector_6" d="M271.692 325.855L295.443 314.751L328.244 371.564C331.488 377.183 324.721 387.153 313.17 393.822C301.619 400.491 289.722 401.532 286.477 395.913L247.098 327.705C260.224 327.271 271.692 325.855 271.692 325.855Z" fill="#93C5FD" stroke="#3B82F6" stroke-linejoin="round"/>
<path id="Ellipse 215" d="M394.184 239.4C396.398 247.663 393.728 255.558 388.219 257.034C382.71 258.51 376.45 253.008 374.236 244.745C372.021 236.482 374.692 228.587 380.201 227.111C385.71 225.635 391.97 231.136 394.184 239.4Z" fill="#EFF6FF" stroke="#3B82F6" stroke-linejoin="round"/>
<path id="Vector_7" d="M374.239 244.745C376.453 253.008 382.713 258.51 388.222 257.034L354.435 276.541C350.914 269.239 347.897 261.145 345.562 252.429C343.226 243.712 341.792 235.196 341.19 227.111L380.204 227.111C374.695 228.587 372.024 236.482 374.239 244.745Z" fill="#93C5FD" stroke="#3B82F6" stroke-linejoin="round"/>
<ellipse id="Ellipse 219" cx="151.631" cy="328.396" rx="60.6669" ry="61.3123" transform="rotate(-15 151.631 328.396)" fill="#DBEAFE" stroke="#3B82F6"/>
<ellipse id="Ellipse 218" cx="157.241" cy="326.893" rx="54.8584" ry="61.3123" transform="rotate(-15 157.241 326.893)" fill="#93C5FD" stroke="#3B82F6"/>
<ellipse id="Ellipse 220" cx="157.864" cy="326.726" rx="42.5959" ry="47.1137" transform="rotate(-15 157.864 326.726)" fill="#EFF6FF"/>
<ellipse id="Ellipse 221" cx="157.24" cy="326.893" rx="31.6242" ry="35.4966" transform="rotate(-15 157.24 326.893)" fill="#93C5FD"/>
<ellipse id="Ellipse 222" cx="157.24" cy="326.894" rx="20.0072" ry="22.5887" transform="rotate(-15 157.24 326.894)" fill="#EFF6FF"/>
<ellipse id="Ellipse 223" cx="158.032" cy="327.349" rx="7.74471" ry="9.0355" transform="rotate(-15 158.032 327.349)" fill="#93C5FD"/>
<path id="Vector_8" d="M156.617 327.061C156.894 328.094 157.677 328.782 158.365 328.597L209.343 299.57L222.346 303.054L246.649 289.023L234.746 284.498C235.435 284.314 235.769 283.327 235.492 282.294C235.215 281.262 234.432 280.573 233.744 280.758L233.744 265.637L208.247 280.358L208.247 295.479L157.363 324.857C156.674 325.041 156.341 326.028 156.617 327.061Z" fill="#EFF6FF"/>
<path id="Vector_9" d="M233.744 265.636L233.744 280.757L208.247 295.478L208.247 280.357L233.744 265.636Z" fill="#DBEAFE"/>
<path id="Vector_10" d="M222.347 303.053L209.343 299.569L234.747 284.498L246.65 289.022L222.347 303.053Z" fill="#93C5FD"/>
<path id="border" d="M233.744 280.758C234.432 280.573 235.215 281.262 235.492 282.294C235.769 283.327 235.435 284.314 234.746 284.498M233.744 280.758L233.744 265.637L208.247 280.358L208.247 295.479M233.744 280.758L220.995 288.118L208.247 295.479M234.746 284.498L158.365 328.597C157.677 328.782 156.894 328.094 156.617 327.061C156.341 326.028 156.674 325.041 157.363 324.857L208.247 295.479M234.746 284.498L246.649 289.023L222.346 303.054L209.343 299.57" stroke="#3B82F6" stroke-linejoin="round"/>
</g>
</svg>
