<svg preserveAspectRatio="none" width="100%" height="100%" overflow="visible" style="display: block;" viewBox="0 0 500 500" fill="none" xmlns="http://www.w3.org/2000/svg">
<g id="top">
<path id="shadow" d="M27.1473 325.022L178.034 231.346C180.58 229.766 183.685 229.369 186.546 230.258L378.998 290.076C380.852 290.653 382.506 291.74 383.771 293.214L420.199 335.685C424.886 341.15 422.684 349.612 415.928 352.099L265.595 407.437C262.934 408.417 259.987 408.259 257.446 407.001L208.914 382.972C206.577 381.814 203.888 381.585 201.387 382.328L162.648 393.854C160.029 394.634 157.208 394.343 154.802 393.046L117.227 372.783C114.917 371.538 112.22 371.219 109.683 371.89L96.7182 375.322C93.5544 376.159 90.1808 375.447 87.6251 373.403L27.1473 325.022Z" fill="#DBEAFE"/>
<g id="Vector 565">
<path d="M91.6675 148.421L183.959 117.833C190.642 115.618 197.534 120.594 197.534 127.635V141.085L368.69 87.225C375.343 85.1312 382.116 90.0999 382.116 97.075V298.787C382.116 303.268 379.225 307.238 374.96 308.614L155.526 379.399C148.858 381.55 142.03 376.578 142.03 369.572V346.79L97.6332 358.898C91.0642 360.689 84.5898 355.744 84.5898 348.935V158.222C84.5898 153.771 87.4422 149.821 91.6675 148.421Z" fill="#93C5FD"/>
<path d="M197.534 141.085V127.635C197.534 120.594 190.642 115.618 183.959 117.833L91.6675 148.421C87.4422 149.821 84.5898 153.771 84.5898 158.222V348.935C84.5898 355.744 91.0642 360.689 97.6332 358.898L142.03 346.79M197.534 141.085V331.407C197.534 339.412 188.819 344.373 181.935 340.286L180.646 339.52C178.24 338.091 175.357 337.7 172.657 338.437L142.03 346.79M197.534 141.085L368.69 87.225C375.343 85.1312 382.116 90.0999 382.116 97.075V298.787C382.116 303.268 379.225 307.238 374.96 308.614L155.526 379.399C148.858 381.55 142.03 376.578 142.03 369.572V346.79" stroke="#3B82F6"/>
</g>
<g id="Vector 566">
<path d="M98.1206 154.875L190.412 124.287C197.095 122.072 203.987 127.048 203.987 134.089V147.539L375.143 93.6791C381.797 91.5853 388.569 96.554 388.569 103.529V305.3C388.569 309.747 385.701 313.685 381.47 315.05L193.66 375.634L161.979 385.853C155.312 388.004 148.483 383.032 148.483 376.026V353.244L104.086 365.352C97.5173 367.143 91.043 362.198 91.043 355.389V164.677C91.043 160.225 93.8954 156.275 98.1206 154.875Z" fill="#EFF6FF"/>
<path d="M203.987 147.539V134.089C203.987 127.048 197.095 122.072 190.412 124.287L98.1206 154.875C93.8954 156.275 91.043 160.225 91.043 164.677V355.389C91.043 362.198 97.5173 367.143 104.086 365.352L148.483 353.244M203.987 147.539L375.143 93.6791C381.797 91.5853 388.569 96.554 388.569 103.529V305.3C388.569 309.747 385.701 313.685 381.47 315.05M203.987 147.539V171.419M148.483 353.244L179.11 344.891C181.81 344.155 184.693 344.546 187.099 345.974L193.66 349.87C198.217 352.576 203.987 349.292 203.987 343.992V171.419M148.483 353.244V376.026C148.483 383.032 155.312 388.004 161.979 385.853L193.66 375.634L381.47 315.05M203.987 171.419L368.029 119.522C374.685 117.416 381.47 122.386 381.47 129.367V315.05" stroke="#3B82F6"/>
</g>
<g id="Vector 568">
<path d="M375.143 93.6791L203.986 147.539V171.419L368.028 119.522C374.685 117.416 381.469 122.386 381.469 129.367V315.05L388.569 312.76V103.529C388.569 96.554 381.796 91.5853 375.143 93.6791Z" fill="#BFDBFE"/>
<path d="M148.482 353.244L183.334 343.739L193.66 349.87V375.634L161.979 385.853C155.311 388.004 148.482 383.032 148.482 376.026V353.244Z" fill="#BFDBFE"/>
<path d="M375.143 93.6791L203.986 147.539V171.419L368.028 119.522C374.685 117.416 381.469 122.386 381.469 129.367V315.05L388.569 312.76V103.529C388.569 96.554 381.796 91.5853 375.143 93.6791Z" stroke="#3B82F6"/>
<path d="M148.482 353.244L183.334 343.739L193.66 349.87V375.634L161.979 385.853C155.311 388.004 148.482 383.032 148.482 376.026V353.244Z" stroke="#3B82F6"/>
</g>
<path id="Vector 567" d="M221.412 304.091V190.349C221.412 189.229 222.135 188.236 223.201 187.892L352.925 146.046C354.592 145.508 356.299 146.751 356.299 148.503V264.573C356.299 265.709 355.557 266.711 354.47 267.042L224.746 306.56C223.087 307.065 221.412 305.824 221.412 304.091Z" fill="#93C5FD" stroke="#3B82F6"/>
<path id="Vector 567_2" d="M180.541 155.935L109.726 178.779C107.823 179.393 106.533 181.164 106.533 183.163C106.533 186.289 109.58 188.507 112.554 187.548L183.369 164.704C185.272 164.09 186.562 162.319 186.562 160.32C186.562 157.194 183.516 154.976 180.541 155.935Z" fill="#BFDBFE"/>
<path id="Vector 568_2" d="M180.541 186.269L109.726 209.113C107.823 209.726 106.533 211.497 106.533 213.497C106.533 216.622 109.58 218.841 112.554 217.881L183.369 195.037C185.272 194.424 186.562 192.652 186.562 190.653C186.562 187.528 183.516 185.309 180.541 186.269Z" fill="#93C5FD"/>
<path id="Vector 569" d="M180.541 216.602L109.726 239.446C107.823 240.06 106.533 241.831 106.533 243.83C106.533 246.956 109.58 249.174 112.554 248.215L183.369 225.371C185.272 224.757 186.562 222.986 186.562 220.987C186.562 217.861 183.516 215.643 180.541 216.602Z" fill="#BFDBFE"/>
<path id="Vector 570" d="M180.541 246.936L109.726 269.78C107.823 270.393 106.533 272.164 106.533 274.164C106.533 277.289 109.58 279.508 112.554 278.548L183.369 255.704C185.272 255.091 186.562 253.319 186.562 251.32C186.562 248.195 183.516 245.976 180.541 246.936Z" fill="#93C5FD"/>
<path id="Vector 571" d="M180.541 277.269L109.726 300.113C107.823 300.727 106.533 302.498 106.533 304.497C106.533 307.623 109.58 309.841 112.554 308.882L183.369 286.038C185.272 285.424 186.562 283.653 186.562 281.654C186.562 278.528 183.516 276.31 180.541 277.269Z" fill="#BFDBFE"/>
<path id="Vector 572" d="M180.541 307.603L109.726 330.447C107.823 331.06 106.533 332.831 106.533 334.831C106.533 337.956 109.58 340.175 112.554 339.215L183.369 316.371C185.272 315.758 186.562 313.986 186.562 311.987C186.562 308.862 183.516 306.643 180.541 307.603Z" fill="#93C5FD"/>
<g id="Vector">
<path d="M249.986 239.759C257.66 229.369 293.416 182.312 308.765 186.156C310.484 186.587 311.851 187.685 312.921 189.31C301.628 186.616 279.427 211.161 265.379 228.519C257.914 237.743 252.752 244.938 252.752 244.938L250.542 243.282C249.418 242.439 249.152 240.889 249.986 239.759Z" fill="#DBEAFE"/>
<path d="M261.794 241.708C267.283 236.626 281.995 224.01 290.211 226.591C291.858 227.108 293.192 228.22 294.271 229.712C283.981 226.774 263.884 246.926 263.884 246.926L262.031 245.536C260.775 244.595 260.642 242.775 261.794 241.708Z" fill="#DBEAFE"/>
<path d="M302.956 257.095L299.322 254.371C298.931 254.078 298.633 253.684 298.445 253.233C297.593 251.196 294.837 245.092 290.814 240.953C293.996 242.463 296.705 245.707 298.751 248.893C301.415 253.043 302.956 257.095 302.956 257.095Z" fill="#DBEAFE"/>
<path d="M312.997 261.57L309.807 259.179C309.151 258.688 308.768 257.926 308.752 257.106C308.647 251.732 307.715 231 299.649 222.076C306.731 225.256 310.057 235.842 311.618 245.254C313.053 253.908 312.997 261.57 312.997 261.57Z" fill="#DBEAFE"/>
</g>
<g id="Vector 575">
<path d="M298.372 221.597C283.138 216.967 252.752 244.938 252.752 244.938C252.752 244.938 295.753 185.01 312.997 189.329C329.804 193.538 312.997 261.57 312.997 261.57C312.997 261.57 313.259 226.121 298.372 221.597Z" fill="#EFF6FF"/>
<path d="M289.423 240.417C280.899 237.902 263.884 246.925 263.884 246.925C263.884 246.925 284.207 226.548 294.443 229.763C304.269 232.85 302.956 257.094 302.956 257.094C302.956 257.094 297.523 242.808 289.423 240.417Z" fill="#EFF6FF"/>
<path d="M298.372 221.597C283.138 216.967 252.752 244.938 252.752 244.938C252.752 244.938 295.753 185.01 312.997 189.329C329.804 193.538 312.997 261.57 312.997 261.57C312.997 261.57 313.259 226.121 298.372 221.597Z" stroke="#3B82F6"/>
<path d="M289.423 240.417C280.899 237.902 263.884 246.925 263.884 246.925C263.884 246.925 284.207 226.548 294.443 229.763C304.269 232.85 302.956 257.094 302.956 257.094C302.956 257.094 297.523 242.808 289.423 240.417Z" stroke="#3B82F6"/>
</g>
<path id="base" d="M409.154 220.713L272.331 264.805C268.064 266.18 265.172 270.151 265.172 274.634V381.152C265.172 388.183 272.046 393.158 278.724 390.962L415.548 345.96C419.784 344.566 422.648 340.611 422.648 336.151V230.541C422.648 223.536 415.821 218.564 409.154 220.713Z" fill="#BFDBFE" stroke="#3B82F6"/>
<path id="base_2" d="M413.154 223.713L276.331 267.805C272.064 269.18 269.172 273.151 269.172 277.634V384.152C269.172 391.183 276.046 396.158 282.724 393.962L419.548 348.96C423.784 347.566 426.648 343.611 426.648 339.151V233.541C426.648 226.536 419.821 221.564 413.154 223.713Z" fill="#EFF6FF" stroke="#3B82F6"/>
<path id="bg" d="M413.496 341.457L288.807 382.874C283.794 384.54 278.621 380.807 278.621 375.524V368.993V342.834V282.6C278.621 279.246 280.779 276.274 283.968 275.235L408.657 234.639C413.661 233.01 418.799 236.74 418.799 242.003V305.689V322.692V334.107C418.799 337.443 416.662 340.405 413.496 341.457Z" fill="#DBEAFE"/>
<path id="bottom" d="M288.807 382.874L413.496 341.456C416.662 340.405 418.799 337.443 418.799 334.106V322.692L278.621 368.993V375.524C278.621 380.807 283.794 384.539 288.807 382.874Z" fill="#93C5FD"/>
<path id="Vector 568_3" d="M302.176 339.482L288.125 365.854L348.71 345.843L379.562 305.689L347.931 278.982C346.696 277.94 344.818 278.275 344.02 279.68L316.781 327.662L311.001 337.887C310.404 338.943 309.153 339.441 307.994 339.085L305.214 338.229C304.032 337.865 302.758 338.391 302.176 339.482Z" fill="#93C5FD"/>
<g id="Vector 569_2">
<path d="M297.774 321.683L278.621 342.834V368.993L288.125 365.854L302.176 339.482C302.757 338.391 304.031 337.865 305.213 338.229L307.994 339.084C309.153 339.441 310.404 338.943 311.001 337.887L315.342 330.207C316.106 328.855 315.513 327.14 314.077 326.549L300.67 321.029C299.664 320.614 298.505 320.876 297.774 321.683Z" fill="#BFDBFE"/>
<path d="M394.582 287.382L379.561 305.689L348.71 345.842L418.799 322.692V305.689L398.312 287.107C397.219 286.116 395.518 286.241 394.582 287.382Z" fill="#BFDBFE"/>
</g>
<ellipse id="Ellipse 240" cx="302.23" cy="292.801" rx="12.5562" ry="14.9568" transform="rotate(30.5689 302.23 292.801)" fill="#EFF6FF" stroke="#3B82F6"/>
<path id="Vector 570_2" d="M288.807 382.874L413.496 341.457C416.662 340.405 418.799 337.443 418.799 334.107V322.692V305.689V242.003C418.799 236.74 413.661 233.01 408.657 234.639L283.968 275.235C280.779 276.274 278.621 279.246 278.621 282.6V342.834V368.993V375.524C278.621 380.807 283.794 384.54 288.807 382.874Z" stroke="#3B82F6"/>
</g>
</svg>
