<svg preserveAspectRatio="none" width="100%" height="100%" overflow="visible" style="display: block;" viewBox="0 0 500 500" fill="none" xmlns="http://www.w3.org/2000/svg">
<g id="top">
<path id="shadow" d="M424.012 312.597L217.86 230.25C210.48 227.302 202.178 231.442 200.093 239.111L187.704 284.672C185.695 292.059 177.88 296.23 170.625 293.787L135.881 282.086C131.44 280.59 126.54 281.542 122.982 284.591L83.5921 318.345C75.2547 325.49 78.6762 339.088 89.402 341.437L170.186 359.123C171.641 359.441 173.032 360.002 174.301 360.781L275.301 422.799C279.819 425.574 285.555 425.4 289.896 422.355L425.701 327.123C431.11 323.33 430.147 315.048 424.012 312.597Z" fill="#DBEAFE"/>
<path id="Vector" d="M353.617 115.5C363.525 115.5 372.352 120.873 378.719 128.854C385.085 136.835 388.952 147.381 388.952 157.62L388.941 298.253C388.941 318.705 372.779 335.263 352.869 335.263H352.868L203.788 335.609C183.878 335.609 167.717 319.052 167.717 298.601L167.728 157.968C167.728 147.74 171.955 137.197 178.69 129.211C185.426 121.225 194.624 115.848 204.537 115.848H204.538L353.617 115.5Z" fill="#93C5FD" stroke="#3B82F6"/>
<path id="Vector_2" d="M338.086 128.653H204.705C184.507 128.653 168.133 145.447 168.133 166.163V297.668C168.133 318.385 184.507 335.178 204.705 335.178H338.086C358.285 335.178 374.658 318.385 374.658 297.668V166.163C374.658 145.447 358.285 128.653 338.086 128.653Z" fill="#93C5FD" stroke="#3B82F6"/>
<path id="256" d="M328.72 283.945H304.19C303.124 283.965 302.076 283.659 301.181 283.067C300.285 282.475 299.581 281.622 299.159 280.618L272.528 216.755C272.459 216.506 272.313 216.287 272.112 216.13C271.912 215.973 271.667 215.887 271.415 215.883C271.163 215.88 270.917 215.96 270.712 216.112C270.508 216.263 270.357 216.478 270.281 216.725L253.685 257.273C253.595 257.493 253.559 257.731 253.581 257.968C253.602 258.205 253.681 258.433 253.809 258.631C253.938 258.83 254.112 258.992 254.316 259.105C254.521 259.217 254.749 259.276 254.981 259.276H273.224C273.776 259.276 274.317 259.443 274.777 259.756C275.238 260.069 275.599 260.514 275.814 261.036L283.801 279.266C284.013 279.777 284.098 280.335 284.048 280.888C283.998 281.441 283.816 281.973 283.517 282.437C283.218 282.9 282.812 283.28 282.335 283.544C281.858 283.807 281.324 283.945 280.783 283.945H214.371C213.872 283.942 213.381 283.812 212.942 283.567C212.503 283.322 212.13 282.97 211.857 282.541C211.583 282.113 211.417 281.622 211.373 281.111C211.329 280.601 211.41 280.087 211.606 279.616L253.849 176.44C254.281 175.348 255.024 174.415 255.98 173.762C256.937 173.11 258.063 172.768 259.212 172.783H283.577C284.726 172.767 285.853 173.108 286.81 173.76C287.767 174.413 288.51 175.347 288.94 176.44L331.475 279.616C331.672 280.087 331.753 280.599 331.709 281.109C331.666 281.619 331.501 282.109 331.229 282.538C330.956 282.966 330.584 283.319 330.147 283.564C329.709 283.81 329.219 283.941 328.72 283.945V283.945Z" fill="#EFF6FF" stroke="#3B82F6"/>
<g id="Vector_3">
<path d="M82.2229 272.843C72.9554 288.895 74.9518 307.397 86.6819 314.169C90.1407 320.929 90.8434 324.454 90.5539 330.381C172.231 342.243 239.066 389.55 274.6 399.071C291.814 403.684 311.304 386.77 318.131 361.292C324.957 335.814 316.536 311.421 299.321 306.808C219.59 295.16 179.785 284.608 120.242 256.041C108.512 249.269 91.4904 256.791 82.2229 272.843Z" fill="#EFF6FF"/>
<path d="M319.133 357.551C325.406 334.139 316.536 311.421 299.321 306.808M299.321 306.808C219.59 295.16 179.785 284.608 120.242 256.041C108.512 249.269 91.4904 256.791 82.2229 272.843C72.9554 288.895 74.9518 307.397 86.6819 314.169C90.1407 320.929 90.8434 324.454 90.5539 330.381C172.231 342.243 239.066 389.55 274.6 399.071C291.814 403.684 311.304 386.77 318.131 361.292C324.957 335.814 316.536 311.421 299.321 306.808Z" stroke="#3B82F6"/>
</g>
<path id="Vector_4" d="M90.5548 330.38C90.8442 324.453 90.1424 320.929 86.6836 314.17C156.596 331.842 198.773 349.21 256.232 380.348" stroke="#3B82F6"/>
<path id="Vector_5" d="M256.458 380.44C198.402 348.903 157.068 331.962 86.6824 314.17C90.1412 320.929 90.8431 324.453 90.5536 330.38C158.188 340.203 215.646 374.331 253.58 391.182M274.599 399.071C268.49 397.434 261.456 394.68 253.58 391.182M253.58 391.182C266.462 394.863 271.933 395.182 277.851 391.924" stroke="#3B82F6"/>
<g id="Vector_6">
<path d="M319.133 357.551C312.859 380.963 293.819 396.203 276.604 391.591C272.667 390.536 269.167 388.534 266.184 385.794C256.124 376.551 251.954 358.905 256.792 340.847C263.066 317.435 282.106 302.195 299.321 306.808C316.536 311.421 325.406 334.139 319.133 357.551Z" fill="#DBEAFE"/>
<path d="M299.321 306.808C282.106 302.195 263.066 317.435 256.792 340.847C251.954 358.905 256.124 376.551 266.184 385.794M299.321 306.808C316.536 311.421 325.406 334.139 319.133 357.551C312.859 380.963 293.819 396.203 276.604 391.591C272.667 390.536 269.167 388.534 266.184 385.794M299.321 306.808C219.59 295.16 179.785 284.608 120.242 256.041C108.512 249.269 91.4904 256.791 82.2229 272.843C72.9554 288.895 74.9518 307.397 86.6819 314.169C160.569 332.846 203.477 351.183 266.184 385.794M160.684 336.372C150.388 330.427 148.596 313.971 156.731 299.881C163.983 287.321 176.778 280.2 186.736 283.122M199.059 351.838C187.896 345.393 185.826 327.366 194.645 312.091C202.378 298.697 215.897 291.125 226.607 293.911" stroke="#3B82F6"/>
</g>
<g id="Vector_7">
<path d="M160.686 336.372C150.389 330.427 148.598 313.971 156.733 299.88C163.984 287.321 176.78 280.2 186.737 283.121C199.205 287.122 211.829 290.546 225.546 293.67C225.903 293.739 226.257 293.819 226.608 293.911C226.253 293.83 225.899 293.75 225.546 293.67C215.018 291.627 202.126 299.136 194.646 312.09C185.827 327.365 187.898 345.393 199.06 351.837C186.378 346.189 173.948 341.164 160.686 336.372Z" fill="#93C5FD"/>
<path d="M160.686 336.372C150.389 330.427 148.598 313.971 156.733 299.88C163.984 287.321 176.78 280.2 186.737 283.121C199.526 287.225 212.48 290.722 226.608 293.911C215.898 291.124 202.379 298.697 194.646 312.09C185.827 327.365 187.898 345.393 199.06 351.837C186.378 346.189 173.948 341.164 160.686 336.372Z" stroke="#3B82F6"/>
</g>
<ellipse id="Ellipse 229" cx="288.586" cy="349.366" rx="13.5532" ry="18.071" transform="rotate(15 288.586 349.366)" fill="#93C5FD"/>
<path id="Ellipse 227" d="M274.6 399.071C291.815 403.684 311.305 386.769 318.131 361.291C324.958 335.813 316.537 311.42 299.322 306.808" stroke="#3B82F6"/>
<g id="Vector 547">
<path d="M104.521 365.526L143.118 351.146L153.96 358.06L164.943 364.451L188.394 349.246L190.583 395.936L176.257 382.075L164.021 392.828L156.266 366.028L135.768 378.576L132.997 366.475L104.521 365.526Z" fill="#93C5FD"/>
<path d="M153.96 358.06L143.118 351.146L104.521 365.526L132.997 366.475L135.768 378.576L156.266 366.028M153.96 358.06L156.266 366.028M153.96 358.06L164.943 364.451L188.394 349.246L190.583 395.936L176.257 382.075L164.021 392.828L156.266 366.028" stroke="#3B82F6"/>
</g>
<ellipse id="Ellipse 231" cx="166.75" cy="342.281" rx="26.3889" ry="27.1428" transform="rotate(-3.24443 166.75 342.281)" fill="#DBEAFE" stroke="#3B82F6"/>
<ellipse id="Ellipse 230" cx="163.571" cy="343.081" rx="24.0422" ry="24.7292" transform="rotate(-3.24443 163.571 343.081)" fill="#DBEAFE" stroke="#3B82F6"/>
<ellipse id="Ellipse 232" cx="163.867" cy="343.252" rx="16.1348" ry="16.7802" transform="rotate(-3.24443 163.867 343.252)" fill="#EFF6FF" stroke="#3B82F6"/>
</g>
</svg>
