<svg preserveAspectRatio="none" width="100%" height="100%" overflow="visible" style="display: block;" viewBox="0 0 500 500" fill="none" xmlns="http://www.w3.org/2000/svg">
<g id="top">
<path id="shadow" d="M419.948 334.539L321.091 288.993C320.137 288.554 319.133 288.235 318.101 288.046L183.142 263.247C179.183 262.519 175.114 263.731 172.198 266.507L107.828 327.785C82.2868 352.099 99.4957 395.135 134.759 395.134L186.822 395.134C189.454 395.134 192.02 395.96 194.158 397.496L228.509 422.167C232.052 424.711 236.66 425.238 240.686 423.56L419.683 348.934C426.004 346.299 426.167 337.405 419.948 334.539Z" fill="#DBEAFE"/>
<path id="Vector" d="M418.975 340.642L418.839 324.208C418.839 323.742 418.503 322.116 417.281 321.411L356.518 278.069C356.518 272.476 356.052 267.35 350.925 264.087L330.308 174.894C329.851 172.92 327.901 171.672 325.917 172.084L138.014 211.099C136.792 211.353 135.814 212.234 135.343 213.287L130.248 222.261C129.799 223.083 129.676 224.045 129.905 224.954L152.144 313.465C152.56 315.123 154.05 316.285 155.76 316.285H160.315C155.648 320.014 157.512 328.869 162.179 330.733V344.266C162.179 345.43 162.722 346.527 163.647 347.232L235.458 401.965C237.43 403.468 240.02 403.893 242.369 403.098L416.442 344.174C417.956 343.661 418.975 342.241 418.975 340.642Z" fill="#93C5FD" stroke="#3B82F6"/>
<g id="Vector 548">
<path d="M138.015 211.099L325.917 172.084C327.901 171.672 329.851 172.92 330.308 174.894L350.925 264.087C356.052 267.349 356.518 272.476 356.518 278.069L417.282 321.411C419.748 323.17 419.198 326.979 416.336 327.969L245.155 387.224C242.809 388.036 240.213 387.628 238.23 386.135L164.038 330.267C165.436 325.606 164.504 319.547 160.309 315.819L135.157 215.658C134.64 213.602 135.939 211.53 138.015 211.099Z" fill="#DBEAFE"/>
<path d="M350.925 264.087L330.308 174.894C329.851 172.92 327.901 171.672 325.917 172.084L138.015 211.099C135.939 211.53 134.64 213.602 135.157 215.658L160.309 315.819M350.925 264.087L160.309 315.819M350.925 264.087C356.052 267.349 356.518 272.476 356.518 278.069M160.309 315.819C164.504 319.547 165.436 325.606 164.038 330.267M356.518 278.069L164.038 330.267M356.518 278.069L417.282 321.411C419.748 323.17 419.198 326.979 416.336 327.969L245.155 387.224C242.809 388.036 240.213 387.628 238.23 386.135L164.038 330.267" stroke="#3B82F6"/>
</g>
<path id="Vector 550" d="M297.84 190.373L180.708 215.524C179.675 215.746 179.033 216.781 179.292 217.805L198.225 292.56C198.48 293.563 199.503 294.167 200.504 293.905L314.235 264.174C315.205 263.921 315.801 262.946 315.584 261.968L300.051 191.793C299.83 190.792 298.842 190.158 297.84 190.373Z" fill="#EFF6FF" stroke="#3B82F6"/>
<path id="Vector 551" d="M224.554 324.111L316.021 298.358C316.578 298.201 317.177 298.312 317.641 298.657L363.438 332.789C364.647 333.69 364.342 335.579 362.911 336.053L275.879 364.916C275.303 365.107 274.67 365.006 274.182 364.644L223.949 327.403C222.705 326.48 223.063 324.53 224.554 324.111Z" fill="#EFF6FF" stroke="#3B82F6"/>
<g id="Vector_2">
<path d="M217.14 345.366L221.93 344.017C222.457 343.869 223.022 343.959 223.476 344.264L227.682 347.092C228.11 347.38 228.638 347.478 229.141 347.362L233.651 346.321C234.137 346.209 234.649 346.296 235.071 346.565L236.483 347.463C237.708 348.243 237.48 350.094 236.103 350.553C234.706 351.019 234.5 352.91 235.763 353.667C237.109 354.475 236.768 356.515 235.233 356.838L231.038 357.72C230.516 357.83 229.972 357.711 229.544 357.394L225.81 354.625C225.355 354.288 224.772 354.176 224.225 354.32L218.972 355.703C218.421 355.848 217.834 355.733 217.379 355.392L215.172 353.737C214.021 352.873 214.28 351.078 215.629 350.577L216.333 350.315C217.383 349.924 217.581 348.525 216.682 347.858C215.74 347.16 216.011 345.684 217.14 345.366Z" fill="#DBEAFE"/>
<path d="M217.14 345.366L221.93 344.017C222.457 343.869 223.022 343.959 223.476 344.264L227.682 347.092C228.11 347.38 228.638 347.478 229.141 347.362L233.651 346.321C234.137 346.209 234.649 346.296 235.071 346.565L236.483 347.463C237.708 348.243 237.48 350.094 236.103 350.553C234.706 351.019 234.5 352.91 235.763 353.667C237.109 354.475 236.768 356.515 235.233 356.838L231.038 357.72C230.516 357.83 229.972 357.711 229.544 357.394L225.81 354.625C225.355 354.288 224.772 354.176 224.225 354.32L218.972 355.703C218.421 355.848 217.834 355.733 217.379 355.392L215.172 353.737C214.021 352.873 214.28 351.078 215.629 350.577L216.333 350.315C217.383 349.924 217.581 348.525 216.682 347.858C215.74 347.16 216.011 345.684 217.14 345.366Z" fill="#DBEAFE"/>
</g>
<path id="Vector_3" d="M231.967 355.856L236.162 354.974C236.569 354.888 236.893 354.681 237.123 354.409L235.5 352.5L236.047 351.125C235.589 350.245 235.959 349.046 237.032 348.689C237.109 348.663 237.183 348.633 237.253 348.599C237.544 348.457 237.771 348.247 237.931 348L234.5 345.5L228.611 347.092L224 344L222 343.5L217.046 345C217.081 345.372 217.263 345.736 217.611 345.994C218.511 346.661 218.312 348.06 217.262 348.451C216.839 348.608 216.558 349.012 216.558 349.464V349.5L215.386 350.202C215.314 350.808 215.539 351.451 216.101 351.872L218.308 353.527C218.763 353.869 219.35 353.984 219.901 353.839L225.154 352.456C225.701 352.312 226.284 352.424 226.739 352.761L230.473 355.53C230.901 355.847 231.445 355.966 231.967 355.856Z" fill="#EFF6FF"/>
<path id="border" d="M221.796 343.535C222.463 343.347 223.18 343.463 223.756 343.85L227.961 346.677C228.274 346.887 228.661 346.959 229.029 346.874L233.539 345.834C234.156 345.692 234.805 345.802 235.34 346.143L236.752 347.041C238.332 348.046 238.038 350.435 236.262 351.027C235.271 351.357 235.124 352.7 236.021 353.238C237.755 354.279 237.318 356.91 235.336 357.327L231.142 358.21C230.48 358.349 229.789 358.198 229.246 357.795L225.513 355.027C225.18 354.781 224.753 354.698 224.353 354.804L219.1 356.187C218.401 356.37 217.657 356.224 217.079 355.791L214.873 354.137C213.406 353.036 213.736 350.747 215.455 350.107L216.159 349.846C216.837 349.594 216.966 348.691 216.385 348.26C215.109 347.314 215.476 345.315 217.005 344.885L221.796 343.535Z" stroke="#3B82F6"/>
<path id="Vector_4" d="M361.68 304.079C359.451 305.367 355.826 305.388 353.582 304.126C351.339 302.864 351.327 300.797 353.556 299.509C355.784 298.222 359.41 298.201 361.653 299.463C363.896 300.725 363.908 302.792 361.68 304.079Z" fill="#DBEAFE" stroke="#3B82F6"/>
<path id="Vector_5" d="M361.68 302.215C359.451 303.503 355.826 303.524 353.582 302.262C351.339 301 351.327 298.933 353.556 297.645C355.784 296.358 359.41 296.337 361.653 297.599C363.896 298.86 363.908 300.927 361.68 302.215Z" fill="#EFF6FF" stroke="#3B82F6"/>
<path id="Vector_6" d="M357.021 312.468C354.793 313.756 351.167 313.776 348.924 312.515C346.681 311.253 346.669 309.186 348.897 307.898C351.126 306.61 354.751 306.59 356.995 307.851C359.238 309.113 359.25 311.18 357.021 312.468Z" fill="#DBEAFE" stroke="#3B82F6"/>
<path id="Vector_7" d="M357.021 310.604C354.793 311.891 351.167 311.912 348.924 310.65C346.681 309.388 346.669 307.322 348.897 306.034C351.126 304.746 354.751 304.725 356.995 305.987C359.238 307.249 359.25 309.316 357.021 310.604Z" fill="#EFF6FF" stroke="#3B82F6"/>
<path id="Vector_8" d="M376.598 305.943C374.369 307.231 370.744 307.252 368.5 305.99C366.257 304.728 366.245 302.661 368.474 301.373C370.702 300.086 374.328 300.065 376.571 301.327C378.814 302.588 378.826 304.655 376.598 305.943Z" fill="#DBEAFE" stroke="#3B82F6"/>
<path id="Vector_9" d="M376.598 304.078C374.369 305.366 370.744 305.387 368.5 304.125C366.257 302.863 366.245 300.796 368.474 299.508C370.702 298.221 374.328 298.2 376.571 299.462C378.814 300.724 378.826 302.791 376.598 304.078Z" fill="#EFF6FF" stroke="#3B82F6"/>
<path id="Vector_10" d="M372.863 314.332C370.635 315.62 367.009 315.641 364.766 314.379C362.522 313.117 362.511 311.05 364.739 309.762C366.968 308.475 370.593 308.454 372.837 309.716C375.08 310.978 375.092 313.044 372.863 314.332Z" fill="#DBEAFE" stroke="#3B82F6"/>
<path id="Vector_11" d="M372.863 312.468C370.635 313.756 367.009 313.776 364.766 312.515C362.522 311.253 362.511 309.186 364.739 307.898C366.968 306.61 370.593 306.59 372.837 307.851C375.08 309.113 375.092 311.18 372.863 312.468Z" fill="#EFF6FF" stroke="#3B82F6"/>
<path id="Ellipse 235" d="M141.216 376.229C113.131 376.229 90.3644 353.462 90.3644 325.377C113.431 343.201 164.283 342.677 192.068 325.377C192.068 353.462 169.301 376.229 141.216 376.229Z" fill="#DBEAFE" stroke="#3B82F6"/>
<path id="Ellipse 234" d="M141.216 274.525C169.301 274.525 192.068 297.292 192.068 325.377C164.283 342.677 113.431 343.201 90.3644 325.377C90.3644 297.292 113.131 274.525 141.216 274.525Z" fill="#93C5FD" stroke="#3B82F6"/>
<path id="Ellipse 236" d="M90.3644 325.377C113.431 343.201 164.283 342.677 192.068 325.377" stroke="#3B82F6" stroke-linecap="round"/>
<circle id="Ellipse 234_2" cx="17.1348" cy="17.1348" r="17.1348" transform="matrix(-0.965926 0.258819 0.258819 0.965926 138.906 315.309)" fill="#3B82F6"/>
<circle id="Ellipse 235_2" cx="11.6075" cy="11.6075" r="11.6075" transform="matrix(-0.965926 0.258819 0.258819 0.965926 134.995 322.078)" fill="#EFF6FF" stroke="#DBEAFE"/>
</g>
</svg>
