<svg preserveAspectRatio="none" width="100%" height="100%" overflow="visible" style="display: block;" viewBox="0 0 108.13 89.1555" fill="none" xmlns="http://www.w3.org/2000/svg">
<g id="Vector">
<path d="M61.1702 86.6531C58.653 88.1064 55.8553 88.928 52.7771 89.118C49.6819 89.2905 46.6704 88.8672 43.7426 87.8483C40.836 86.8172 38.3732 85.2562 36.3541 83.1654C34.318 81.057 33.0735 78.7789 32.6206 76.3312C32.1889 73.8712 32.5196 71.5183 33.6126 69.2727C34.7057 67.027 36.5108 65.1775 39.028 63.7242L46.3892 59.4742L36.158 48.8794L28.7968 53.1294C26.2796 54.5827 23.4819 55.4044 20.4037 55.5944C17.3085 55.7668 14.3055 55.3523 11.3947 54.351C8.48804 53.3199 6.01669 51.7501 3.98063 49.6417C1.94456 47.5333 0.70857 45.264 0.272652 42.8338C-0.159081 40.3739 0.180072 38.0298 1.29011 35.8017C2.38318 33.556 4.18831 31.7065 6.70551 30.2532C9.24385 28.7877 12.0606 27.9687 15.1558 27.7963C18.2341 27.6063 21.2371 28.0208 24.1648 29.0397C27.0756 30.041 29.5491 31.5959 31.5851 33.7043L37.4388 39.7659L50.194 32.4017L44.3403 26.3401C42.3043 24.2316 41.0683 21.9623 40.6324 19.5321C40.2006 17.0722 40.5292 14.7342 41.6181 12.5183C42.7112 10.2726 44.5269 8.41704 47.0652 6.95152C49.6036 5.48601 52.4098 4.67315 55.4838 4.51294C58.562 4.32296 61.5545 4.74351 64.4611 5.77462C67.3719 6.77594 69.8454 8.3308 71.8814 10.4392C73.9175 12.5476 75.1514 14.8318 75.5831 17.2918C76.019 19.722 75.6904 22.0599 74.5974 24.3056C73.5085 26.5215 71.6949 28.3622 69.1565 29.8277L61.8588 34.0411L72.09 44.6358L79.3878 40.4225C81.9261 38.957 84.7323 38.1441 87.8063 37.9839C90.9015 37.8115 93.9025 38.2408 96.8091 39.2719C99.7369 40.2908 102.219 41.8545 104.255 43.9629C106.274 46.0537 107.499 48.3291 107.931 50.7891C108.384 53.2369 108.064 55.5836 106.971 57.8293C105.882 60.0452 104.068 61.8859 101.53 63.3514C98.9916 64.8169 96.1833 65.6447 93.1051 65.8347C90.031 65.9949 87.0301 65.5655 84.1024 64.5466C81.1957 63.5155 78.7329 61.9546 76.7138 59.8637L70.8092 53.7493L58.054 61.1136L63.9586 67.2279C65.9777 69.3188 67.2031 71.5942 67.6348 74.0542C68.0666 76.5141 67.7359 78.867 66.6428 81.1127C65.5328 83.3408 63.7086 85.1876 61.1702 86.6531ZM55.9783 81.2767C57.3321 80.495 58.2959 79.5144 58.8699 78.3347C59.465 77.1427 59.6493 75.9006 59.4227 74.6084C59.2004 73.2864 58.5547 72.0719 57.4858 70.965L51.5812 64.8506L44.22 69.1006C42.8874 69.87 41.932 70.8595 41.3538 72.069C40.7799 73.2487 40.6146 74.4935 40.8582 75.8033C41.0847 77.0955 41.7409 78.3039 42.8268 79.4284C43.8958 80.5353 45.2077 81.365 46.7627 81.9177C48.3008 82.4527 49.8828 82.675 51.5087 82.5846C53.1558 82.4821 54.6456 82.0461 55.9783 81.2767ZM23.6048 47.753L30.9661 43.503L25.1124 37.4413C24.0265 36.3168 22.7039 35.4932 21.1447 34.9703C19.6067 34.4353 18.0141 34.2191 16.3671 34.3217C14.7411 34.412 13.2513 34.848 11.8975 35.6297C10.5648 36.399 9.60096 37.3797 9.00585 38.5717C8.43188 39.7514 8.25817 40.9874 8.48473 42.2796C8.71128 43.5718 9.36751 44.7802 10.4534 45.9047C11.5393 47.0292 12.8598 47.8677 14.4148 48.4203C15.9528 48.9554 17.5348 49.1777 19.1607 49.0873C20.7908 48.9672 22.2722 48.5224 23.6048 47.753ZM56.6668 28.6647L63.9646 24.4513C65.3183 23.6697 66.2907 22.6978 66.8816 21.5357C67.4556 20.3559 67.6293 19.1199 67.4028 17.8277C67.1592 16.5179 66.4945 15.3008 65.4086 14.1763C64.3227 13.0518 63.0108 12.222 61.4727 11.687C59.9347 11.1519 58.3527 10.9296 56.7268 11.02C55.1008 11.1104 53.611 11.5464 52.2572 12.328C50.9034 13.1096 49.929 14.0963 49.3338 15.2883C48.7599 16.468 48.5862 17.704 48.8127 18.9962C49.0604 20.2763 49.7272 21.4785 50.8131 22.603L56.6668 28.6647ZM96.338 57.975C97.6918 57.1934 98.6557 56.2127 99.2296 55.033C99.8036 53.8532 99.9773 52.6173 99.7507 51.325C99.5072 50.0152 98.851 48.8069 97.7821 47.6999C96.6962 46.5755 95.3842 45.7457 93.8461 45.2106C92.2911 44.658 90.7007 44.4269 89.0747 44.5173C87.4318 44.5901 85.9335 45.0173 84.5797 45.7989L77.282 50.0123L83.1866 56.1267C84.2555 57.2336 85.5569 58.0694 87.0907 58.6343C88.6288 59.1693 90.2107 59.3917 91.8367 59.3013C93.4838 59.1987 94.9842 58.7566 96.338 57.975ZM52.862 55.7371L65.6172 48.3729L55.386 37.7782L42.6308 45.1424L52.862 55.7371Z" fill="#93C5FD"/>
<path d="M61.0789 82.1845C58.5617 83.6378 55.764 84.4594 52.6858 84.6494C49.5906 84.8218 46.5791 84.3986 43.6513 83.3797C40.7447 82.3486 38.2818 80.7876 36.2627 78.6968C34.2267 76.5884 32.9822 74.3103 32.5293 71.8625C32.0976 69.4026 32.4283 67.0497 33.5213 64.804C34.6144 62.5584 36.4195 60.7089 38.9367 59.2556L46.2979 55.0056L36.0667 44.4108L28.7055 48.6608C26.1883 50.1141 23.3906 50.9358 20.3124 51.1258C17.2172 51.2982 14.2142 50.8837 11.3033 49.8824C8.39673 48.8513 5.92539 47.2815 3.88932 45.1731C1.85325 43.0647 0.617261 40.7954 0.181343 38.3652C-0.25039 35.9052 0.0887635 33.5612 1.1988 31.3331C2.29187 29.0874 4.097 27.2379 6.6142 25.7846C9.15254 24.3191 11.9693 23.5001 15.0645 23.3277C18.1428 23.1377 21.1458 23.5522 24.0735 24.5711C26.9843 25.5724 29.4578 27.1273 31.4938 29.2357L37.3475 35.2973L50.1027 27.9331L44.249 21.8714C42.213 19.763 40.977 17.4937 40.5411 15.0635C40.1093 12.6036 40.4379 10.2656 41.5268 8.04972C42.6199 5.80403 44.4356 3.94843 46.9739 2.48292C49.5123 1.0174 52.3185 0.204541 55.3925 0.0443399C58.4707 -0.145648 61.4632 0.27491 64.3698 1.30601C67.2806 2.30733 69.754 3.8622 71.7901 5.97061C73.8262 8.07901 75.0601 10.3632 75.4918 12.8232C75.9277 15.2534 75.5991 17.5913 74.5061 19.837C73.4172 22.0529 71.6036 23.8936 69.0652 25.3591L61.7675 29.5725L71.9987 40.1672L79.2964 35.9539C81.8348 34.4884 84.641 33.6755 87.715 33.5153C90.8102 33.3429 93.8111 33.7722 96.7178 34.8033C99.6455 35.8222 102.127 37.3859 104.164 39.4943C106.183 41.5851 107.408 43.8605 107.84 46.3205C108.293 48.7683 107.973 51.115 106.879 53.3607C105.791 55.5766 103.977 57.4173 101.439 58.8828C98.9003 60.3483 96.092 61.1761 93.0138 61.3661C89.9397 61.5263 86.9388 61.0969 84.011 60.078C81.1044 59.0469 78.6416 57.486 76.6225 55.3951L70.7179 49.2807L57.9627 56.645L63.8673 62.7593C65.8864 64.8502 67.1118 67.1256 67.5435 69.5856C67.9753 72.0455 67.6446 74.3984 66.5515 76.6441C65.4415 78.8722 63.6173 80.719 61.0789 82.1845ZM55.887 76.8081C57.2408 76.0264 58.2046 75.0458 58.7786 73.8661C59.3737 72.6741 59.558 71.432 59.3314 70.1398C59.1091 68.8178 58.4634 67.6033 57.3945 66.4964L51.4899 60.382L44.1287 64.632C42.7961 65.4014 41.8407 66.3909 41.2625 67.6004C40.6886 68.7801 40.5233 70.0249 40.7669 71.3347C40.9934 72.6269 41.6496 73.8353 42.7355 74.9597C43.8045 76.0667 45.1164 76.8964 46.6714 77.4491C48.2095 77.9841 49.7915 78.2064 51.4174 78.116C53.0645 78.0134 54.5543 77.5774 55.887 76.8081ZM23.5135 43.2844L30.8747 39.0344L25.0211 32.9727C23.9352 31.8482 22.6126 31.0246 21.0534 30.5017C19.5154 29.9667 17.9228 29.7505 16.2757 29.8531C14.6498 29.9434 13.1599 30.3794 11.8062 31.161C10.4735 31.9304 9.50966 32.9111 8.91454 34.1031C8.34057 35.2828 8.16686 36.5188 8.39342 37.811C8.61997 39.1032 9.2762 40.3116 10.3621 41.4361C11.448 42.5606 12.7685 43.3991 14.3235 43.9517C15.8615 44.4868 17.4435 44.7091 19.0694 44.6187C20.6995 44.4986 22.1809 44.0538 23.5135 43.2844ZM56.5755 24.1961L63.8732 19.9827C65.227 19.2011 66.1994 18.2292 66.7903 17.067C67.3643 15.8873 67.538 14.6513 67.3114 13.3591C67.0679 12.0493 66.4032 10.8322 65.3173 9.70767C64.2314 8.58318 62.9194 7.75342 61.3814 7.21837C59.8434 6.68331 58.2614 6.46098 56.6355 6.55137C55.0095 6.64175 53.5197 7.07775 52.1659 7.85935C50.8121 8.64096 49.8376 9.62774 49.2425 10.8197C48.6686 11.9994 48.4948 13.2354 48.7214 14.5276C48.9691 15.8076 49.6359 17.0099 50.7218 18.1344L56.5755 24.1961ZM96.2467 53.5064C97.6005 52.7248 98.5643 51.7441 99.1383 50.5644C99.7123 49.3846 99.886 48.1487 99.6594 46.8564C99.4159 45.5466 98.7597 44.3383 97.6907 43.2313C96.6048 42.1069 95.2929 41.2771 93.7548 40.742C92.1998 40.1894 90.6094 39.9583 88.9834 40.0487C87.3405 40.1215 85.8422 40.5487 84.4884 41.3303L77.1907 45.5437L83.0952 51.6581C84.1642 52.765 85.4656 53.6008 86.9994 54.1657C88.5375 54.7007 90.1194 54.9231 91.7454 54.8327C93.3925 54.7301 94.8929 54.288 96.2467 53.5064ZM52.7707 51.2685L65.5259 43.9043L55.2947 33.3096L42.5395 40.6738L52.7707 51.2685Z" fill="var(--fill-0, #EFF6FF)"/>
</g>
</svg>
