<svg preserveAspectRatio="none" width="100%" height="100%" overflow="visible" style="display: block;" viewBox="0 0 79.0412 82.3959" fill="none" xmlns="http://www.w3.org/2000/svg">
<path id="Vector" fill-rule="evenodd" clip-rule="evenodd" d="M13.6299 14.4457C16.1926 16.5278 17.154 16.369 21.9665 16.0479L67.3353 13.3237C68.2975 13.3237 67.4974 12.3638 67.1764 12.2043L59.6417 6.75717C58.1979 5.63627 56.2745 4.35263 52.5879 4.67375L8.65724 7.8779C7.05508 8.03676 6.7351 8.83784 7.37311 9.4799L13.6299 14.4457ZM16.3537 25.0189V72.7548C16.3537 75.3203 17.6358 76.2801 20.5212 76.1214L70.3816 73.2363C73.2685 73.0776 73.5901 71.313 73.5901 69.2289V21.8133C73.5901 19.7327 72.7897 18.6106 71.0225 18.7708L18.9179 21.8133C16.995 21.9749 16.3537 22.9368 16.3537 25.0189ZM65.5757 27.5796C65.8954 29.0227 65.5757 30.4646 64.1298 30.6268L61.7276 31.1055V66.3472C59.6417 67.4682 57.7183 68.1092 56.1155 68.1092C53.5493 68.1092 52.9066 67.3076 50.9845 64.9061L35.2702 40.2367V64.1051L40.2428 65.2271C40.2428 65.2271 40.2428 68.1092 36.231 68.1092L25.1711 68.7507C24.8498 68.1092 25.1711 66.5086 26.293 66.188L29.1791 65.3881V33.8295L25.1719 33.5084C24.8505 32.0653 25.6509 29.9844 27.8971 29.823L39.7617 29.0232L56.1155 54.0138V31.9064L51.9459 31.4279C51.6259 29.6636 52.9066 28.3826 54.5101 28.2237L65.5757 27.5796ZM4.96874 3.55301L50.6637 0.187893C56.2751 -0.293371 57.7189 0.0290382 61.2458 2.59097L75.8322 12.8431C78.239 14.606 79.0412 15.086 79.0412 17.0078V73.2363C79.0412 76.7602 77.7574 78.8443 73.2693 79.1632L20.2037 82.3676C16.8345 82.5283 15.2311 82.0481 13.4666 79.8041L2.725 65.8674C0.800432 63.3019 0 61.3827 0 59.1373V9.15765C0 6.27591 1.28413 3.87202 4.96874 3.55301Z" fill="var(--fill-0, #93C5FD)"/>
</svg>
