<svg preserveAspectRatio="none" width="100%" height="100%" overflow="visible" style="display: block;" viewBox="0 0 244.97 223.448" fill="none" xmlns="http://www.w3.org/2000/svg">
<g id="Vector 545">
<path d="M106.011 1.30956L14.9228 34.657C11.2962 35.9848 7.27094 35.6661 3.89839 33.7842L0.500006 31.8879V49.299C0.513025 51.8671 1.27398 54.4743 2.88727 56.7895L19.0441 79.9756L114.712 217.265C118.235 222.321 124.776 224.285 130.501 222.006L239.242 177.227C242.558 175.907 244.465 172.761 244.47 169.518V157.496L236.386 156.169L121.24 5.88303C117.741 1.14777 111.54 -0.714573 106.011 1.30956Z" fill="var(--fill-0, #93C5FD)"/>
<path d="M19.0441 79.9756L114.712 217.265C118.235 222.321 124.776 224.285 130.501 222.006L239.242 177.227C242.558 175.907 244.465 172.761 244.47 169.518V157.496L236.386 156.169L121.24 5.88303C117.741 1.14777 111.54 -0.714573 106.011 1.30956L14.9228 34.657C11.2962 35.9848 7.27094 35.6661 3.89839 33.7842L0.500006 31.8879V49.299C0.513025 51.8671 1.27398 54.4743 2.88727 56.7895L19.0441 79.9756ZM19.0441 79.9756V62.5645" stroke="var(--stroke-0, #3B82F6)"/>
</g>
</svg>
