<svg preserveAspectRatio="none" width="100%" height="100%" overflow="visible" style="display: block;" viewBox="0 0 216.397 198.064" fill="none" xmlns="http://www.w3.org/2000/svg">
<g id="Vector 546">
<path d="M214.579 148.598L106.139 3.16843C104.388 0.819599 101.303 -0.10184 98.5499 0.90171L78.8909 8.06876C77.6586 8.51802 77.0969 9.94403 77.6918 11.113C78.2854 12.2797 77.7273 13.7029 76.4988 14.155L29.5519 31.4315C28.0041 32.0011 26.2654 31.5704 25.1625 30.3441C24.0626 29.1212 22.3299 28.6892 20.7846 29.2525L4.86398 35.0567C0.761634 36.5523 -0.801361 41.5352 1.71183 45.1059L107.036 194.749C108.801 197.256 112.054 198.227 114.904 197.097L211.705 158.729C215.764 157.12 217.188 152.098 214.579 148.598Z" fill="var(--fill-0, #EFF6FF)"/>
<path d="M49.9574 18.617L36.6498 23.4686L63.2651 13.7655L49.9574 18.617ZM76.4988 14.155L29.5519 31.4315C28.0041 32.0011 26.2654 31.5704 25.1625 30.3441C24.0626 29.1212 22.3299 28.6892 20.7846 29.2525L4.86398 35.0567C0.761634 36.5523 -0.801361 41.5352 1.71183 45.1059L107.036 194.749C108.801 197.256 112.054 198.227 114.904 197.097L211.705 158.729C215.764 157.12 217.188 152.098 214.579 148.598L106.139 3.16843C104.388 0.819599 101.303 -0.10184 98.5499 0.90171L78.8909 8.06876C77.6586 8.51802 77.0969 9.94403 77.6918 11.113C78.2854 12.2797 77.7273 13.7029 76.4988 14.155Z" stroke="var(--stroke-0, #3B82F6)" stroke-linejoin="round"/>
</g>
</svg>
