<svg width="18" height="16" viewBox="0 0 18 16" fill="none" xmlns="http://www.w3.org/2000/svg">
<path d="M13.589 11.0856C14.7612 11.6744 15.7662 12.6194 16.4997 13.8011C16.645 14.0351 16.7177 14.1521 16.7428 14.3142C16.7938 14.6434 16.5686 15.0482 16.262 15.1785C16.1111 15.2426 15.9413 15.2426 15.6018 15.2426M11.9787 7.6197C13.1717 7.02683 13.9915 5.79574 13.9915 4.37316C13.9915 2.95057 13.1717 1.71948 11.9787 1.12661M10.3684 4.37316C10.3684 6.37417 8.74623 7.99631 6.74522 7.99631C4.7442 7.99631 3.12206 6.37417 3.12206 4.37316C3.12206 2.37214 4.7442 0.75 6.74522 0.75C8.74623 0.75 10.3684 2.37214 10.3684 4.37316ZM1.15689 13.5827C2.44053 11.6553 4.46615 10.4117 6.74522 10.4117C9.02428 10.4117 11.0499 11.6553 12.3335 13.5827C12.6148 14.0049 12.7554 14.216 12.7392 14.4857C12.7266 14.6957 12.5889 14.9528 12.4211 15.0797C12.2057 15.2426 11.9093 15.2426 11.3165 15.2426H2.17389C1.58115 15.2426 1.28478 15.2426 1.06929 15.0797C0.901508 14.9528 0.76386 14.6957 0.751256 14.4857C0.735068 14.216 0.875674 14.0049 1.15689 13.5827Z" stroke="black" stroke-width="1.5" stroke-linecap="round" stroke-linejoin="round"/>
</svg>
