<svg width="18" height="17" viewBox="0 0 18 17" fill="none" xmlns="http://www.w3.org/2000/svg">
<path d="M1.0973 9.61102H5.93058M11.5694 9.61102H16.4027M8.75 4.77774V16.0554M8.75 4.77774C9.86223 4.77774 10.7639 3.8761 10.7639 2.76387M8.75 4.77774C7.63777 4.77774 6.73613 3.8761 6.73613 2.76387M2.30562 16.0554L15.1944 16.0554M2.30562 2.76387L6.73613 2.76387M6.73613 2.76387C6.73613 1.65164 7.63777 0.75 8.75 0.75C9.86223 0.75 10.7639 1.65164 10.7639 2.76387M10.7639 2.76387L15.1944 2.76387M6.23705 10.6875C5.91427 11.9234 4.8174 12.8332 3.51394 12.8332C2.21049 12.8332 1.11362 11.9234 0.790842 10.6875C0.764468 10.5865 0.751281 10.536 0.75001 10.3343C0.74923 10.2106 0.795191 9.92547 0.834787 9.80831C0.899383 9.61718 0.969306 9.50929 1.10915 9.29353L3.51394 5.58328L5.91873 9.29353C6.05858 9.50929 6.1285 9.61718 6.1931 9.80831C6.2327 9.92547 6.27866 10.2106 6.27788 10.3343C6.27661 10.536 6.26342 10.5865 6.23705 10.6875ZM16.7092 10.6875C16.3864 11.9234 15.2895 12.8332 13.9861 12.8332C12.6826 12.8332 11.5857 11.9234 11.263 10.6875C11.2366 10.5865 11.2234 10.536 11.2221 10.3343C11.2213 10.2106 11.2673 9.92547 11.3069 9.80831C11.3715 9.61718 11.4414 9.50929 11.5813 9.29353L13.9861 5.58328L16.3908 9.29353C16.5307 9.50929 16.6006 9.61718 16.6652 9.80831C16.7048 9.92547 16.7508 10.2106 16.75 10.3343C16.7487 10.536 16.7355 10.5865 16.7092 10.6875Z" stroke="black" stroke-width="1.5" stroke-linecap="round" stroke-linejoin="round"/>
</svg>
