<svg width="18" height="16" viewBox="0 0 18 16" fill="none" xmlns="http://www.w3.org/2000/svg">
<path d="M15.4868 15.0658V9.17105M8.75 15.0658V6.64474M2.01316 15.0658L2.01316 11.6974M9.93457 2.45737L14.2869 4.08951M7.73844 2.77183L3.02388 6.30775M16.38 3.64629C16.8733 4.13958 16.8733 4.93937 16.38 5.43266C15.8867 5.92596 15.0869 5.92596 14.5937 5.43266C14.1004 4.93937 14.1004 4.13958 14.5937 3.64629C15.0869 3.15299 15.8867 3.15299 16.38 3.64629ZM2.90635 6.1726C3.39964 6.6659 3.39964 7.46568 2.90635 7.95898C2.41305 8.45227 1.61326 8.45227 1.11997 7.95898C0.626677 7.46568 0.626677 6.6659 1.11997 6.1726C1.61326 5.67931 2.41305 5.67931 2.90635 6.1726ZM9.64319 1.11997C10.1365 1.61326 10.1365 2.41305 9.64319 2.90635C9.14989 3.39964 8.35011 3.39964 7.85681 2.90635C7.36352 2.41305 7.36352 1.61326 7.85681 1.11997C8.35011 0.626677 9.14989 0.626677 9.64319 1.11997Z" stroke="black" stroke-width="1.5" stroke-linecap="round" stroke-linejoin="round"/>
</svg>
