<svg width="17" height="18" viewBox="0 0 17 18" fill="none" xmlns="http://www.w3.org/2000/svg">
<path d="M8.05516 1.03899V8.75M8.05516 8.75L14.9545 4.91699M8.05516 8.75L1.15584 4.91699M8.05516 8.75V16.461M14.9545 12.583L8.68587 9.10039C8.45567 8.9725 8.34057 8.90856 8.21868 8.88349C8.1108 8.8613 7.99953 8.8613 7.89165 8.88349C7.76976 8.90856 7.65466 8.9725 7.42446 9.10039L1.15584 12.583M15.3603 12.0443V5.45573C15.3603 5.17761 15.3603 5.03856 15.3194 4.91453C15.2831 4.80481 15.2238 4.7041 15.1455 4.61912C15.057 4.52307 14.9355 4.45553 14.6923 4.32047L8.68587 0.983541C8.45567 0.855654 8.34057 0.79171 8.21868 0.766641C8.1108 0.744453 7.99953 0.744453 7.89165 0.766641C7.76976 0.79171 7.65466 0.855654 7.42446 0.983542L1.41799 4.32047C1.17487 4.45554 1.05331 4.52307 0.964799 4.61912C0.886491 4.7041 0.82723 4.80481 0.790978 4.91453C0.75 5.03856 0.75 5.17762 0.75 5.45573V12.0443C0.75 12.3224 0.75 12.4614 0.790978 12.5855C0.82723 12.6952 0.886491 12.7959 0.964799 12.8809C1.05331 12.9769 1.17487 13.0445 1.41799 13.1795L7.42446 16.5165C7.65466 16.6443 7.76976 16.7083 7.89165 16.7334C7.99953 16.7555 8.1108 16.7555 8.21868 16.7334C8.34057 16.7083 8.45567 16.6443 8.68587 16.5165L14.6923 13.1795C14.9355 13.0445 15.057 12.9769 15.1455 12.8809C15.2238 12.7959 15.2831 12.6952 15.3194 12.5855C15.3603 12.4614 15.3603 12.3224 15.3603 12.0443Z" stroke="black" stroke-width="1.5" stroke-linecap="round" stroke-linejoin="round"/>
</svg>
