<svg width="18" height="18" viewBox="0 0 18 18" fill="none" xmlns="http://www.w3.org/2000/svg">
<path d="M4.00835 8.0944C3.95888 7.77562 3.93322 7.44904 3.93322 7.1165C3.93322 3.60038 6.80236 0.75 10.3416 0.75C13.8809 0.75 16.75 3.60038 16.75 7.1165C16.75 7.91078 16.6036 8.67109 16.3361 9.37224C16.2806 9.51786 16.2528 9.59067 16.2402 9.64752C16.2277 9.70384 16.2229 9.74346 16.2215 9.80114C16.2201 9.85935 16.228 9.92348 16.2438 10.0517L16.5642 12.6542C16.5989 12.9359 16.6162 13.0768 16.5694 13.1792C16.5283 13.2689 16.4554 13.3402 16.3647 13.3792C16.2613 13.4236 16.1208 13.4031 15.84 13.3619L13.3051 12.9903C13.1728 12.9709 13.1066 12.9612 13.0463 12.9616C12.9867 12.9619 12.9454 12.9663 12.8871 12.9786C12.8281 12.991 12.7527 13.0192 12.602 13.0756C11.8991 13.3389 11.1373 13.483 10.3416 13.483C10.0088 13.483 9.68194 13.4578 9.36281 13.4092M5.23168 16.6663C7.59119 16.6663 9.50394 14.7066 9.50394 12.2893C9.50394 9.87195 7.59119 7.91232 5.23168 7.91232C2.87218 7.91232 0.959424 9.87195 0.959424 12.2893C0.959424 12.7752 1.03671 13.2426 1.17938 13.6794C1.23969 13.864 1.26984 13.9563 1.27974 14.0193C1.29007 14.0852 1.29188 14.1221 1.28803 14.1887C1.28435 14.2524 1.2684 14.3244 1.23652 14.4685L0.75 16.6663L3.1333 16.3408C3.26339 16.323 3.32843 16.3141 3.38523 16.3145C3.44504 16.3149 3.47678 16.3182 3.53543 16.3298C3.59114 16.341 3.67394 16.3702 3.83956 16.4286C4.27592 16.5826 4.74427 16.6663 5.23168 16.6663Z" stroke="black" stroke-width="1.5" stroke-linecap="round" stroke-linejoin="round"/>
</svg>
