<svg width="18" height="17" viewBox="0 0 18 17" fill="none" xmlns="http://www.w3.org/2000/svg">
<path d="M8.14115 1.44908C8.33677 1.05278 8.43458 0.854623 8.56736 0.791312C8.68289 0.736229 8.81711 0.736229 8.93264 0.791312C9.06542 0.854623 9.16323 1.05278 9.35885 1.44908L11.2148 5.20895C11.2725 5.32595 11.3014 5.38445 11.3436 5.42987C11.381 5.47008 11.4258 5.50267 11.4755 5.52581C11.5318 5.55196 11.5963 5.56139 11.7254 5.58026L15.8768 6.18705C16.314 6.25095 16.5325 6.2829 16.6337 6.38967C16.7217 6.48257 16.7631 6.61022 16.7463 6.73709C16.7271 6.8829 16.5688 7.03704 16.2524 7.3453L13.2495 10.2701C13.1559 10.3612 13.1091 10.4068 13.0789 10.4611C13.0522 10.5091 13.035 10.5619 13.0284 10.6164C13.0209 10.6781 13.032 10.7425 13.054 10.8712L13.7626 15.0024C13.8373 15.4381 13.8747 15.6559 13.8045 15.7852C13.7434 15.8977 13.6348 15.9766 13.5089 15.9999C13.3642 16.0267 13.1686 15.9239 12.7773 15.7181L9.06604 13.7664C8.9504 13.7055 8.89258 13.6751 8.83167 13.6632C8.77774 13.6526 8.72226 13.6526 8.66833 13.6632C8.60742 13.6751 8.5496 13.7055 8.43397 13.7664L4.72268 15.7181C4.3314 15.9239 4.13577 16.0267 3.99111 15.9999C3.86525 15.9766 3.75665 15.8977 3.69555 15.7852C3.62533 15.6559 3.66269 15.4381 3.73742 15.0024L4.44596 10.8712C4.46805 10.7425 4.47909 10.6781 4.47162 10.6164C4.465 10.5619 4.44785 10.5091 4.42111 10.4611C4.3909 10.4068 4.3441 10.3612 4.25049 10.2701L1.24765 7.3453C0.931157 7.03704 0.772912 6.8829 0.753656 6.73709C0.736902 6.61022 0.778292 6.48257 0.866304 6.38967C0.96746 6.2829 1.18604 6.25095 1.6232 6.18705L5.77459 5.58026C5.90369 5.56139 5.96824 5.55196 6.02446 5.52581C6.07423 5.50267 6.11905 5.47008 6.15641 5.42987C6.19861 5.38445 6.22749 5.32595 6.28524 5.20895L8.14115 1.44908Z" stroke="black" stroke-width="1.5" stroke-linecap="round" stroke-linejoin="round"/>
</svg>
