<svg width="18" height="18" viewBox="0 0 18 18" fill="none" xmlns="http://www.w3.org/2000/svg">
<path d="M12.3056 16.75H12.4833C13.9768 16.75 14.7235 16.75 15.294 16.4594C15.7957 16.2037 16.2037 15.7957 16.4594 15.294C16.75 14.7235 16.75 13.9768 16.75 12.4833V5.01667C16.75 3.52319 16.75 2.77646 16.4594 2.20603C16.2037 1.70426 15.7957 1.29631 15.294 1.04065C14.7235 0.75 13.9768 0.75 12.4833 0.75H5.01667C3.52319 0.75 2.77646 0.75 2.20603 1.04065C1.70426 1.29631 1.29631 1.70426 1.04065 2.20603C0.75 2.77646 0.75 3.52319 0.75 5.01667V5.19444M8.30556 9.19444L13.1944 4.30556M13.1944 4.30556H8.75M13.1944 4.30556V8.75M3.59444 16.75H5.90556C6.9012 16.75 7.39903 16.75 7.77932 16.5562C8.11383 16.3858 8.38579 16.1138 8.55623 15.7793C8.75 15.399 8.75 14.9012 8.75 13.9056V11.5944C8.75 10.5988 8.75 10.101 8.55623 9.72068C8.38579 9.38617 8.11383 9.11421 7.77932 8.94377C7.39903 8.75 6.9012 8.75 5.90556 8.75H3.59444C2.5988 8.75 2.10097 8.75 1.72068 8.94377C1.38617 9.11421 1.11421 9.38617 0.943766 9.72068C0.75 10.101 0.75 10.5988 0.75 11.5944V13.9056C0.75 14.9012 0.75 15.399 0.943766 15.7793C1.11421 16.1138 1.38617 16.3858 1.72068 16.5562C2.10097 16.75 2.5988 16.75 3.59444 16.75Z" stroke="black" stroke-width="1.5" stroke-linecap="round" stroke-linejoin="round"/>
</svg>
